<?xml version="1.0" standalone="no"?>
<!DOCTYPE svg PUBLIC "-//W3C//DTD SVG 20010904//EN"
 "http://www.w3.org/TR/2001/REC-SVG-20010904/DTD/svg10.dtd">
<svg version="1.0" xmlns="http://www.w3.org/2000/svg"
 width="958.000000pt" height="958.000000pt" viewBox="0 0 958.000000 958.000000"
 preserveAspectRatio="xMidYMid meet">
<metadata>
Created by potrace 1.11, written by Peter Selinger 2001-2013
</metadata>
<g transform="translate(0.000000,958.000000) scale(0.100000,-0.100000)"
fill="#000000" stroke="none">
<path d="M1 8893 c1 -379 5 -677 9 -663 5 14 8 39 9 57 1 17 7 34 13 36 10 4
10 6 1 6 -7 1 -13 6 -13 12 0 6 7 9 15 5 10 -3 16 1 16 12 1 9 5 -1 9 -23 5
-27 7 -7 7 65 0 58 -4 110 -10 117 -5 7 -7 18 -4 25 3 8 6 6 6 -5 1 -10 6 -15
11 -12 6 3 10 -4 10 -17 1 -20 2 -21 10 -6 11 18 3 51 -11 42 -5 -3 -9 2 -9
10 0 9 -5 16 -11 16 -8 0 -9 13 -5 40 4 27 3 40 -5 40 -8 0 -10 13 -6 38 5 25
3 32 -3 22 -5 -8 -10 -44 -11 -80 l-2 -65 -8 80 c-4 44 -4 94 1 112 4 17 6 34
3 37 -11 11 -15 156 -4 156 7 0 11 -20 11 -51 0 -41 3 -50 14 -46 10 4 13 1 9
-9 -3 -7 0 -14 7 -14 6 0 10 8 8 18 -2 9 -10 16 -16 15 -8 -2 -12 11 -12 38 0
24 4 38 10 34 6 -3 10 0 10 8 0 10 8 13 28 9 l27 -5 -30 32 c-26 28 -30 30
-37 14 -4 -12 -7 -5 -7 20 -1 23 -5 36 -11 32 -6 -3 -10 1 -10 9 0 8 4 18 10
21 5 3 10 15 10 25 0 27 24 15 37 -18 11 -27 11 -27 12 -3 1 14 -7 33 -16 43
-15 17 -15 20 4 38 21 19 22 60 2 60 -5 0 -9 5 -9 11 0 6 6 9 13 6 10 -4 13 2
9 19 -2 13 -8 22 -12 19 -9 -5 -24 95 -15 103 3 3 6 -8 6 -24 l2 -29 7 30 c7
28 7 27 5 -7 -2 -21 1 -38 5 -38 5 0 11 -15 13 -32 2 -18 4 1 3 42 0 41 -4 78
-9 81 -4 3 -5 13 -1 23 9 24 24 1 24 -38 0 -23 3 -27 20 -23 21 5 28 -9 8 -15
-7 -3 -6 -7 5 -11 14 -5 17 0 17 28 0 24 5 35 15 35 9 0 15 -9 15 -25 0 -14 4
-25 9 -25 14 0 1 72 -15 91 -19 22 -17 28 5 22 11 -3 22 -12 24 -22 3 -9 5 -5
6 10 0 15 8 32 16 39 8 7 15 21 15 32 0 14 5 18 15 14 18 -7 20 15 3 32 -17
17 -25 15 -32 -10 -5 -19 -8 -21 -16 -8 -7 11 -10 7 -11 -20 0 -19 -3 -29 -6
-22 -6 14 -33 16 -33 2 0 -5 -10 -11 -22 -11 -17 -1 -19 -2 -5 -6 9 -2 17 -9
17 -15 0 -5 -7 -7 -15 -4 -8 3 -22 9 -30 12 -11 4 -15 -1 -15 -17 -1 -21 -2
-22 -11 -6 -5 9 -17 17 -24 17 -8 0 -15 4 -15 9 0 5 9 7 19 4 16 -4 19 -1 14
16 -3 11 -11 26 -19 32 -8 6 -14 19 -15 28 -1 9 -4 5 -9 -9 -8 -24 -8 -24 -9
-2 -1 15 -7 22 -21 22 -20 0 -20 -5 -19 -687z m149 542 c-12 -15 -30 -12 -30
6 0 5 10 9 21 9 18 0 19 -2 9 -15z m40 -15 c0 -5 -4 -10 -10 -10 -5 0 -10 5
-10 10 0 6 5 10 10 10 6 0 10 -4 10 -10z m-46 -25 c3 -8 1 -15 -4 -15 -6 0
-10 7 -10 15 0 8 2 15 4 15 2 0 6 -7 10 -15z m-117 -77 c-3 -7 -5 -2 -5 12 0
14 2 19 5 13 2 -7 2 -19 0 -25z m1 -95 l-1 -58 -6 50 c-6 48 -5 65 5 65 2 0 3
-26 2 -57z m58 -35 c4 -6 3 -8 -4 -4 -5 3 -13 0 -15 -6 -3 -8 -6 -6 -6 5 -1
19 14 23 25 5z m-36 -37 c0 -5 -7 -11 -15 -15 -15 -5 -20 5 -8 17 9 10 23 9
23 -2z m-23 -638 c0 -37 -2 -42 -9 -24 -7 19 -2 71 7 71 2 0 3 -21 2 -47z m19
-101 c-13 -13 -17 9 -10 50 l9 43 3 -44 c2 -23 1 -46 -2 -49z"/>
<path d="M148 9573 c7 -3 16 -2 19 1 4 3 -2 6 -13 5 -11 0 -14 -3 -6 -6z"/>
<path d="M186 9573 c7 -4 14 -17 17 -28 5 -16 5 -15 4 4 -1 14 -9 26 -17 28
-10 3 -11 2 -4 -4z"/>
<path d="M310 9548 c0 -36 4 -35 14 5 4 16 2 27 -4 27 -5 0 -10 -14 -10 -32z"/>
<path d="M3682 9318 c1 -145 -2 -333 -5 -418 -4 -89 -3 -142 2 -125 l9 30 1
-28 c0 -16 -3 -36 -8 -45 -5 -10 -11 -277 -13 -606 l-5 -588 -74 -77 c-41 -43
-80 -91 -88 -107 -12 -27 -17 -37 -45 -89 -6 -11 -21 -34 -33 -52 -13 -17 -23
-37 -23 -43 0 -7 -13 -38 -30 -69 -16 -31 -41 -96 -55 -146 -15 -49 -35 -110
-45 -135 -11 -25 -22 -56 -26 -69 -3 -13 -20 -40 -38 -60 -85 -99 -96 -118
-96 -171 0 -37 -6 -61 -21 -82 -25 -35 -20 -43 26 -40 39 3 47 -17 20 -44 -11
-11 -15 -12 -15 -3 0 7 -3 9 -6 6 -14 -14 -13 -101 1 -150 8 -28 15 -68 15
-88 0 -41 36 -202 51 -231 5 -10 9 -29 9 -43 0 -14 5 -25 11 -25 6 0 8 -8 4
-19 -6 -19 20 -115 37 -137 4 -6 13 -49 19 -95 6 -46 30 -163 55 -259 24 -96
48 -218 54 -270 6 -52 20 -156 33 -230 18 -112 21 -167 19 -320 -4 -289 -23
-409 -90 -570 -27 -66 -30 -75 -41 -109 -17 -54 -7 -46 22 17 77 171 126 356
128 485 1 59 4 74 9 52 5 -20 8 2 7 65 0 77 -1 86 -7 45 -5 -39 -7 -29 -7 50
0 67 2 89 7 65 6 -26 8 -11 10 60 2 52 5 78 7 58 2 -21 8 -38 14 -38 5 0 9 5
9 10 0 6 7 10 15 10 8 0 15 5 15 11 0 7 11 22 25 35 14 13 25 28 25 35 0 7 -9
6 -25 -5 -27 -18 -31 -15 -14 12 15 23 69 18 69 -7 0 -13 2 -14 9 -1 6 8 7 26
4 42 -3 17 0 33 10 43 23 22 27 19 27 -21 0 -56 17 -31 26 38 l8 63 7 -55 c3
-30 3 -62 -1 -70 -9 -18 -2 -40 11 -40 5 0 9 33 9 73 -1 39 1 83 4 96 3 13 8
49 11 80 8 74 15 105 22 97 3 -3 13 3 20 14 8 11 18 18 23 15 4 -3 11 1 13 7
3 7 6 3 6 -10 1 -13 -3 -20 -9 -17 -6 4 -10 -13 -10 -43 0 -35 4 -52 15 -56 8
-3 15 -1 15 3 0 11 33 53 78 97 17 18 32 36 32 41 0 4 30 40 66 78 36 39 75
81 86 95 11 14 23 25 26 25 24 1 57 43 88 113 8 18 19 30 24 27 6 -3 10 -1 10
4 0 6 8 11 18 11 20 0 72 45 72 63 1 7 12 26 25 42 l25 30 1 -30 c1 -29 1 -30
9 -5 14 43 11 -4 -5 -80 -8 -39 -20 -80 -25 -91 -6 -10 -7 -19 -3 -19 4 0 19
24 32 53 38 82 72 127 112 148 47 24 48 24 58 -3 6 -17 -3 -39 -41 -102 -45
-74 -66 -126 -32 -81 66 89 94 142 94 181 0 36 3 43 25 48 15 4 27 16 31 31 5
21 9 23 27 14 18 -10 19 -12 4 -21 -16 -9 -24 -38 -11 -38 4 0 15 10 25 22 13
14 19 16 19 7 0 -11 2 -11 10 1 9 13 10 13 10 0 0 -8 -18 -28 -40 -44 -69 -51
-51 -56 38 -9 48 25 91 49 96 54 6 5 19 9 31 9 23 0 90 34 113 56 18 18 29 10
13 -9 -9 -11 -4 -17 22 -30 17 -8 52 -21 77 -27 121 -32 193 -105 256 -258 21
-52 49 -86 64 -77 6 3 24 -5 40 -19 17 -14 36 -23 43 -20 7 2 19 -5 27 -16 13
-19 15 -18 42 23 16 23 36 58 44 77 29 67 106 169 173 228 81 73 189 184 228
234 32 43 60 60 42 27 -19 -37 -42 -62 -199 -220 -147 -148 -205 -216 -212
-249 -2 -8 -5 -17 -9 -20 -11 -10 -49 -91 -49 -105 0 -19 17 -28 26 -14 4 8 3
9 -4 5 -17 -10 -15 13 3 30 13 14 15 12 15 -13 0 -15 5 -35 10 -43 8 -12 10
-11 10 7 0 12 17 50 37 85 21 35 44 75 53 89 19 33 142 171 147 165 7 -7 -23
-59 -50 -87 -29 -30 -51 -69 -44 -76 3 -3 12 4 19 16 7 12 16 21 21 21 9 0
-18 -56 -44 -89 -21 -26 -25 -51 -9 -51 6 0 10 7 10 15 0 9 25 41 56 73 31 31
65 74 76 95 15 28 23 35 29 25 6 -9 9 -8 9 7 0 41 46 149 81 189 19 22 59 73
88 111 30 39 55 72 57 74 2 2 4 -5 4 -17 0 -19 -111 -161 -132 -170 -5 -2 -8
-10 -8 -18 0 -8 -4 -14 -10 -14 -5 0 -10 -9 -10 -20 0 -18 3 -19 20 -10 27 14
26 2 -5 -56 -25 -47 -25 -75 -1 -41 8 9 27 34 45 55 17 20 38 46 47 57 13 16
15 17 10 3 -6 -21 14 -24 32 -6 7 7 12 9 12 5 0 -13 -53 -67 -67 -67 -7 0 -13
-10 -13 -22 0 -19 -2 -20 -10 -8 -5 8 -10 10 -10 5 0 -6 5 -16 12 -23 9 -9 9
-12 0 -12 -7 0 -12 -7 -12 -15 0 -19 -19 -51 -47 -81 -13 -13 -23 -28 -23 -33
0 -6 -13 -31 -30 -56 -16 -25 -43 -65 -59 -89 -34 -52 -47 -86 -32 -86 6 0 11
5 11 10 0 12 60 102 84 126 9 8 21 24 27 35 12 24 29 16 29 -14 0 -20 0 -20
14 -1 8 10 18 19 23 19 7 0 56 48 122 120 47 51 32 15 -23 -55 -50 -64 -65
-90 -52 -90 3 0 12 7 20 16 21 20 21 -3 1 -30 -17 -23 -9 -42 10 -26 8 7 20 8
26 4 7 -4 9 -3 6 3 -4 6 2 18 13 28 12 10 20 13 20 7 0 -7 -5 -12 -11 -12 -5
0 -7 -5 -4 -11 5 -6 12 -4 20 7 7 11 19 15 29 11 10 -4 15 -3 11 3 -3 5 -1 18
4 27 8 14 10 1 11 -49 0 -52 3 -68 14 -68 8 0 17 -12 19 -27 2 -16 5 -3 6 27
1 34 5 50 10 42 4 -7 6 -24 3 -38 -4 -21 -1 -24 19 -22 23 3 24 1 22 -62 l-2
-65 22 55 22 55 6 -45 c3 -25 7 -35 7 -22 1 14 8 22 20 21 9 0 12 -3 5 -5 -7
-3 -9 -12 -6 -20 6 -16 6 -17 50 63 24 43 62 61 126 58 20 -1 37 2 37 6 0 5
14 7 30 5 17 -2 30 1 30 8 0 6 4 5 9 -3 5 -7 14 -10 20 -7 6 4 11 2 11 -4 0
-7 7 -10 15 -6 8 3 15 0 15 -7 0 -8 4 -6 10 3 5 8 10 10 10 4 0 -14 118 -18
135 -4 7 6 23 13 35 15 13 2 25 7 29 11 3 4 -2 4 -11 1 -10 -4 -18 -2 -18 4 0
7 12 8 30 4 17 -4 30 -3 30 2 0 5 11 10 25 11 33 2 123 92 155 154 16 30 27
43 32 35 9 -14 11 5 12 118 1 83 28 171 49 158 5 -3 7 0 5 8 -3 8 1 34 8 59 9
27 12 70 9 110 -4 49 -3 58 4 37 6 -16 7 -35 5 -42 -3 -7 -1 -16 5 -20 7 -4
11 4 11 19 0 23 2 24 30 16 21 -6 30 -5 30 3 0 7 4 6 10 -3 8 -12 10 -12 10
-1 0 10 3 11 14 2 8 -7 17 -8 20 -3 3 6 24 6 52 1 25 -5 50 -6 55 -3 5 3 12
-9 16 -26 4 -23 8 -28 15 -18 7 11 11 10 21 -2 6 -9 27 -17 46 -18 19 -1 39
-6 45 -10 6 -3 20 -5 31 -4 15 2 17 1 6 -6 -10 -7 -10 -11 -1 -17 7 -4 16 -1
21 6 6 10 9 11 9 2 0 -7 9 -13 20 -13 16 0 20 -7 21 -32 l1 -33 8 30 c7 27 8
27 9 6 0 -13 4 -21 8 -18 3 4 12 2 20 -4 10 -9 13 -7 13 7 0 15 4 13 19 -9 23
-35 45 -183 45 -297 -1 -47 -7 -155 -14 -240 -15 -184 -15 -222 -1 -359 6 -64
7 -117 2 -135 l-9 -31 -1 35 c-1 37 -21 81 -21 48 0 -10 -4 -18 -10 -18 -5 0
-10 15 -10 33 0 40 -25 66 -57 61 -13 -2 -23 1 -23 7 0 5 -4 7 -10 4 -5 -3
-15 3 -21 14 -7 10 -19 17 -26 14 -9 -4 -13 4 -13 23 0 30 -12 56 -24 55 -11
-1 -36 -29 -36 -41 0 -6 -4 -8 -10 -5 -5 3 -10 -1 -10 -9 0 -8 -9 -18 -21 -21
-11 -4 -24 -18 -30 -31 -5 -14 -13 -22 -19 -19 -5 3 -10 1 -10 -5 0 -6 -4 -8
-10 -5 -6 4 -10 -5 -10 -19 0 -14 -4 -26 -9 -26 -5 0 -7 10 -5 23 4 20 4 20
-4 2 -5 -11 -8 -24 -6 -30 4 -11 -65 -62 -78 -58 -4 2 -8 -1 -8 -5 0 -13 -33
-47 -50 -54 -11 -4 -17 -21 -18 -49 -2 -24 -7 -45 -13 -47 -5 -2 -9 -12 -9
-23 0 -12 -5 -16 -15 -13 -9 4 -15 0 -15 -9 0 -9 -21 -38 -46 -64 -25 -26 -50
-56 -55 -66 -10 -17 -9 -17 18 -4 50 27 171 159 165 183 -1 7 2 15 8 19 5 3
10 2 10 -3 0 -6 26 -8 60 -5 46 4 65 2 78 -10 22 -20 90 -57 103 -57 14 0 39
-26 39 -41 0 -17 -39 -150 -53 -179 -20 -42 -59 -90 -68 -84 -5 3 -9 2 -8 -3
4 -23 -3 -40 -16 -40 -8 0 -15 4 -15 9 0 4 5 8 10 8 11 0 13 30 4 54 -3 9 -13
16 -21 16 -8 0 -13 -6 -10 -12 2 -7 10 -12 16 -10 7 1 10 -2 6 -8 -3 -6 -10
-8 -15 -5 -5 3 -12 -5 -16 -19 -6 -24 -39 -44 -51 -32 -4 3 2 6 11 6 10 0 16
6 13 13 -2 6 3 17 12 24 14 10 13 11 -6 6 -13 -3 -23 -9 -23 -13 0 -12 -54 2
-63 16 -4 8 -15 14 -22 14 -8 0 -15 5 -15 11 0 5 -4 8 -9 5 -5 -3 -11 1 -15 9
-3 8 -10 15 -16 15 -6 0 -43 15 -83 34 -98 46 -112 49 -139 34 -13 -7 -24 -13
-25 -13 -1 0 -4 -12 -8 -28 -6 -23 -4 -27 14 -27 25 0 121 -48 121 -61 0 -5 6
-9 13 -9 17 0 39 -38 31 -52 -5 -7 -3 -8 5 -4 8 6 11 2 9 -10 -2 -11 2 -18 9
-17 8 2 11 -8 8 -27 -2 -18 0 -28 6 -24 5 3 7 9 4 14 -3 5 -1 11 4 14 5 3 12
-5 15 -18 3 -14 20 -47 37 -74 28 -46 30 -52 17 -76 l-14 -26 -27 28 c-24 25
-26 33 -18 55 12 31 5 35 -16 10 -11 -14 -14 -14 -11 -3 2 8 -6 25 -18 38 -19
20 -23 20 -34 7 -7 -9 -14 -32 -16 -53 -4 -34 2 -54 27 -104 13 -25 11 -50 -6
-72 -11 -14 -15 -16 -15 -5 -1 8 -9 -1 -18 -19 -10 -18 -21 -30 -25 -26 -4 4
-7 1 -7 -7 0 -8 -9 -21 -20 -29 -11 -8 -20 -20 -20 -28 0 -7 -4 -10 -10 -7 -5
3 -10 -1 -10 -9 0 -9 -4 -16 -10 -16 -5 0 -10 -9 -10 -20 0 -22 -16 -53 -41
-83 -22 -24 -32 -72 -13 -56 8 6 14 18 14 25 0 8 5 14 10 14 14 0 60 49 60 63
0 6 3 7 6 4 5 -5 41 36 111 128 5 6 13 21 19 35 20 42 77 115 81 103 3 -7 -14
-35 -36 -63 -23 -29 -41 -58 -41 -67 0 -17 -51 -95 -88 -135 -14 -16 -20 -28
-14 -28 7 0 12 5 12 11 0 5 4 8 8 5 5 -3 18 3 29 14 12 10 24 16 27 13 3 -4 6
1 6 10 0 10 5 17 11 17 7 0 5 -10 -5 -25 -9 -13 -16 -31 -16 -40 0 -9 -4 -13
-10 -10 -5 3 -10 2 -10 -4 0 -5 4 -11 10 -13 13 -4 -8 -82 -29 -105 -18 -20
-80 -135 -126 -236 -24 -52 -98 -132 -151 -163 -24 -14 -44 -29 -44 -33 0 -4
-14 -12 -32 -19 -17 -6 -29 -14 -25 -18 8 -8 107 39 132 63 11 10 35 27 54 36
38 19 35 20 100 -43 47 -46 52 -59 32 -90 -9 -14 -27 -43 -40 -63 -23 -37 -73
-72 -84 -60 -16 15 -177 -140 -177 -170 0 -16 -85 -147 -94 -144 -12 4 -95
-78 -106 -106 -8 -21 -9 -21 -10 -2 -1 16 -5 12 -19 -14 -10 -19 -16 -43 -13
-54 3 -14 1 -18 -6 -13 -7 4 -12 2 -12 -4 0 -7 -7 -10 -15 -6 -8 3 -15 1 -15
-4 0 -14 -42 -50 -52 -44 -4 3 -8 0 -8 -6 0 -7 -6 -10 -13 -7 -8 3 -20 -3 -27
-14 -11 -14 -16 -15 -22 -6 -6 9 -8 9 -8 0 0 -7 -7 -13 -16 -13 -8 0 -12 -4
-9 -10 3 -6 -5 -10 -18 -10 -14 0 -28 -8 -32 -17 -7 -17 -8 -16 -15 2 -7 17
-9 17 -9 3 -1 -10 -5 -18 -11 -18 -5 0 -10 -8 -10 -17 0 -15 -2 -16 -10 -3 -8
12 -10 12 -11 -5 l0 -20 -9 20 c-9 20 -9 20 -9 0 -1 -17 -8 -21 -37 -21 -19 0
-38 -5 -42 -10 -12 -17 -78 -54 -97 -54 -14 0 -15 3 -6 14 9 11 9 15 0 18 -6
2 6 20 27 41 38 36 42 53 10 41 -9 -3 -16 -12 -16 -18 0 -7 -7 -13 -15 -13 -8
0 -15 7 -15 15 0 8 -6 12 -15 8 -18 -7 -20 8 -2 26 26 28 72 106 146 251 72
142 103 227 80 227 -5 0 -9 -9 -9 -20 0 -24 -47 -117 -72 -142 -10 -10 -18
-25 -18 -33 0 -8 -4 -15 -10 -15 -5 0 -10 -7 -10 -16 0 -8 -4 -12 -10 -9 -5 3
-10 0 -10 -7 0 -19 -23 -68 -32 -68 -5 0 -8 -10 -8 -22 0 -19 -2 -20 -10 -8
-5 8 -10 10 -10 4 0 -9 -176 -190 -208 -214 -11 -8 20 33 58 76 19 22 45 52
58 67 24 29 72 124 72 142 0 6 9 18 20 28 11 9 20 26 20 37 0 11 4 20 9 20 5
0 11 10 14 23 2 12 8 30 12 39 4 11 3 18 -4 18 -6 0 -11 -8 -12 -17 0 -15 -2
-15 -9 2 -5 11 -9 15 -9 10 -1 -6 -10 -11 -20 -12 -20 -2 -22 21 -5 48 4 7 1
10 -7 7 -8 -2 -18 -14 -24 -26 -5 -12 -13 -22 -17 -22 -5 0 -8 -6 -8 -14 0
-19 -64 -48 -87 -39 -23 9 -43 28 -43 43 0 6 13 37 29 69 26 50 71 169 71 186
0 15 -22 2 -30 -17 -8 -22 -9 -21 -10 7 0 23 -3 27 -10 15 -5 -8 -10 -10 -10
-5 0 14 -28 -39 -52 -100 -11 -27 -36 -74 -56 -103 -20 -30 -46 -68 -57 -86
-23 -38 -85 -110 -85 -99 1 4 32 53 70 108 38 55 86 134 106 175 21 41 42 77
46 78 4 2 8 10 8 17 0 8 11 30 24 50 13 19 27 53 31 75 4 22 12 38 18 37 6 -1
13 6 15 16 8 40 -20 12 -50 -47 -17 -36 -36 -63 -40 -60 -5 3 -7 2 -6 -3 3
-10 -20 -53 -37 -70 -19 -18 -51 10 -59 51 -7 37 -29 62 -26 30 1 -11 1 -41 0
-69 -2 -45 -3 -47 -10 -20 -7 27 -10 26 -14 -4 0 -5 -5 -13 -9 -17 -14 -15 -5
120 10 144 8 13 14 38 13 55 -1 18 -1 43 -1 57 1 22 3 23 12 7 5 -9 7 -22 3
-29 -4 -7 -3 -8 5 -4 7 5 9 16 5 29 -8 26 -22 37 -40 30 -6 -2 -15 0 -19 6
-11 19 -26 13 -17 -6 5 -10 6 -45 2 -78 -12 -109 -129 -339 -130 -258 -1 10
-15 -11 -33 -46 -18 -36 -38 -66 -44 -69 -8 -2 -4 15 11 45 50 103 83 187 93
233 11 55 10 71 -2 66 -9 -3 -12 7 -11 35 0 21 5 39 9 39 5 0 8 8 7 18 -3 24
10 62 21 62 5 0 9 8 9 19 0 10 11 55 23 99 27 94 17 101 -12 9 -11 -34 -31
-86 -46 -115 -14 -30 -28 -67 -32 -83 -3 -16 -10 -32 -14 -35 -5 -3 -9 -25 -9
-50 0 -33 -3 -43 -12 -38 -10 6 -10 4 0 -7 14 -15 17 -43 3 -35 -6 4 -6 -5 -2
-21 8 -28 -1 -53 -27 -81 -7 -7 -10 -17 -7 -22 8 -13 -24 -80 -41 -87 -28 -11
-39 15 -36 90 1 39 -1 77 -5 84 -4 6 -8 -13 -9 -43 0 -61 -3 -65 -41 -69 l-29
-2 8 69 c8 78 25 139 42 150 8 5 7 8 -1 8 -7 0 -13 5 -13 11 0 5 4 8 9 4 10
-5 15 6 26 62 l7 33 -31 -18 c-17 -9 -29 -22 -27 -29 3 -6 -2 -35 -10 -65 -9
-29 -19 -66 -24 -83 -8 -29 -8 -28 -9 11 -1 23 -7 47 -15 53 -11 10 -11 18 3
56 9 25 22 45 28 45 7 0 13 3 14 8 7 72 48 187 80 226 11 13 47 64 85 120 23
35 26 46 21 94 -3 30 -11 60 -18 66 -8 8 -10 6 -5 -11 4 -12 3 -30 -3 -40 -5
-10 -14 -41 -20 -69 -10 -49 -53 -127 -86 -154 -8 -7 -15 -17 -15 -22 0 -6
-11 -23 -25 -40 -16 -19 -25 -42 -25 -65 0 -36 -45 -142 -66 -155 -7 -4 -15
-19 -18 -33 -4 -14 -11 -25 -16 -25 -6 0 -10 -15 -11 -32 -1 -31 -1 -31 -9 -8
-7 24 -7 24 -18 -10 l-10 -35 -1 40 c0 22 15 87 34 144 19 58 33 107 30 109
-3 3 -19 -26 -36 -64 -17 -38 -35 -77 -40 -86 -5 -10 -10 -41 -10 -70 l-2 -53
-6 42 c-4 24 -10 46 -14 49 -9 10 -25 -38 -22 -67 1 -13 0 -16 -2 -6 -2 9 -8
17 -12 17 -4 0 -7 10 -6 23 0 41 -20 33 -31 -13 -6 -27 -13 -39 -17 -30 -3 8
-6 1 -6 -17 -1 -26 -4 -30 -21 -26 -14 4 -20 0 -20 -10 0 -12 -6 -10 -25 9
-14 14 -25 31 -25 39 0 18 -16 20 -23 3 -3 -7 -6 16 -6 51 -1 84 -12 74 -20
-18 -1 -10 -4 -11 -15 -2 -11 9 -16 9 -21 0 -6 -8 -10 -7 -16 2 -8 12 -11 11
-19 -1 -7 -11 -10 -5 -10 23 0 27 -4 37 -12 34 -7 -2 -12 -10 -10 -16 1 -7 -2
-10 -8 -6 -5 3 -10 24 -10 46 0 24 -4 38 -10 34 -6 -3 -10 1 -10 9 0 9 -5 16
-11 16 -6 0 -10 -12 -9 -27 3 -46 0 -64 -8 -59 -15 9 -20 -142 -6 -153 5 -3
14 -17 20 -31 6 -14 21 -46 33 -71 22 -48 28 -76 11 -49 -6 9 -10 10 -10 3 0
-6 5 -15 10 -18 6 -4 8 -10 5 -14 -2 -5 2 -32 11 -62 14 -47 14 -56 1 -78 -8
-15 -17 -39 -21 -56 -4 -16 -19 -55 -34 -85 -15 -30 -27 -64 -28 -75 0 -11 -3
-38 -7 -60 -5 -37 -4 -35 11 12 10 29 21 55 25 59 4 4 7 15 7 24 0 19 36 60
53 60 34 -1 39 -16 31 -99 -4 -51 -10 -78 -15 -69 -5 7 -6 -18 -2 -57 7 -80
13 -98 13 -37 0 22 4 44 10 47 6 4 7 -1 3 -11 -4 -12 -3 -15 5 -10 7 4 15 1
18 -8 3 -9 10 -13 15 -10 5 3 9 -11 9 -30 0 -45 18 -56 23 -14 l4 33 1 -33 c2
-28 5 -33 24 -30 17 2 24 -4 31 -29 6 -18 16 -33 22 -33 7 0 16 -12 20 -27 3
-16 13 -36 22 -45 10 -11 12 -24 7 -40 -4 -13 -7 -27 -6 -31 1 -5 -2 -6 -7 -3
-5 3 -12 -1 -15 -10 -3 -8 -10 -12 -16 -9 -6 4 -10 -5 -9 -22 0 -25 1 -26 9
-8 8 19 9 19 9 -2 1 -31 -123 -153 -156 -153 -7 0 -13 -5 -13 -10 0 -6 -21
-31 -47 -56 -27 -25 -47 -50 -45 -55 1 -5 -3 -8 -9 -7 -12 3 -40 -40 -95 -147
-93 -181 -115 -231 -113 -269 0 -11 3 -15 6 -8 2 6 9 12 15 12 6 0 4 -8 -5
-18 -10 -10 -17 -34 -17 -54 0 -19 -11 -67 -25 -106 -14 -39 -25 -80 -25 -91
0 -10 -7 -37 -15 -60 -10 -29 -11 -49 -5 -66 10 -27 8 -28 -45 -25 -33 2 -158
41 -163 51 -1 3 -14 4 -27 1 -19 -3 -25 0 -26 14 0 11 -3 14 -6 7 -2 -7 -11
-13 -18 -13 -19 0 -186 85 -253 129 -31 21 -95 59 -142 86 -78 44 -255 159
-340 221 -19 14 -34 30 -32 35 1 5 -5 9 -14 9 -16 0 -70 39 -136 99 -21 19
-47 40 -59 49 -25 18 -80 73 -97 98 -11 16 -11 16 -2 -6 10 -21 6 -19 -21 10
-17 19 -58 63 -91 98 -32 35 -56 68 -52 74 4 6 3 8 -3 5 -13 -8 -196 200 -190
216 3 7 6 3 8 -8 1 -11 5 0 9 25 4 25 9 51 11 59 2 7 -1 15 -8 18 -7 3 -11 -7
-11 -27 1 -16 -2 -33 -5 -37 -4 -3 -7 1 -7 10 0 9 -4 17 -10 17 -5 0 -10 7
-10 16 0 8 -4 12 -10 9 -9 -6 -15 8 -11 29 1 5 -5 6 -13 3 -19 -8 -66 50 -58
71 3 9 1 13 -5 9 -12 -8 -23 14 -23 46 0 14 -3 18 -8 10 -9 -14 -102 166 -102
197 0 58 40 160 90 228 50 68 59 102 22 83 -9 -5 -43 -15 -76 -22 -32 -7 -78
-26 -102 -41 -42 -28 -62 -49 -133 -137 -32 -40 -150 -111 -184 -111 -8 0 -40
-19 -73 -42 -32 -23 -97 -68 -144 -101 -72 -51 -264 -167 -276 -167 -5 0 -189
-122 -280 -186 -84 -59 -87 -61 -228 -134 -61 -31 -129 -68 -151 -80 -22 -13
-58 -32 -80 -43 -22 -11 -42 -22 -45 -26 -11 -14 -99 -71 -109 -71 -6 0 -11
-4 -11 -10 0 -5 -4 -10 -10 -10 -5 0 -31 -12 -57 -28 -26 -15 -86 -45 -133
-66 -213 -96 -233 -108 -305 -180 -40 -39 -102 -99 -138 -133 l-67 -61 0 -511
0 -511 4056 0 4055 0 -6 23 c-42 149 -138 417 -165 462 -9 17 -29 50 -42 75
-14 25 -44 79 -66 121 -23 42 -60 127 -83 190 -22 63 -61 150 -86 194 -77 133
-112 163 -366 315 -56 33 -207 103 -282 130 -77 28 -76 28 -230 99 -179 84
-198 94 -203 110 -3 9 0 11 7 7 25 -16 98 53 151 143 19 31 56 82 83 114 28
33 56 77 64 99 17 51 75 143 119 188 53 56 76 120 75 209 -1 42 -3 84 -4 94
-1 13 9 22 37 32 71 25 134 105 166 212 10 34 10 61 -5 160 -9 65 -21 120 -26
121 -19 7 -8 20 22 26 22 4 41 0 63 -13 17 -11 53 -27 79 -36 l48 -16 52 30
c68 39 90 64 122 135 34 76 34 138 1 250 -22 74 -26 108 -26 213 0 88 -6 148
-19 206 -11 45 -25 119 -31 164 -11 80 -10 83 19 152 32 76 103 177 129 186
10 2 29 16 43 29 15 13 49 36 77 50 59 30 92 77 92 132 1 22 7 80 15 129 11
71 11 119 3 226 -7 98 -7 178 2 290 23 304 23 314 5 404 -21 107 -15 150 23
163 50 17 219 169 276 247 46 63 145 155 167 155 10 0 19 5 19 11 0 5 -5 7
-10 4 -6 -3 -13 1 -16 10 -4 10 5 34 25 61 17 25 31 48 31 52 0 3 26 29 57 57
45 41 55 55 49 71 -7 18 -8 18 -17 1 -6 -9 -24 -24 -41 -33 l-30 -16 6 39 c15
88 18 153 8 153 -5 0 -13 -7 -16 -16 -4 -10 -14 -14 -26 -11 -11 3 -20 2 -20
-2 0 -4 -10 -7 -21 -8 -21 -2 -21 -1 2 14 73 50 81 108 10 69 -27 -15 -51 -11
-51 8 0 13 60 56 79 56 10 0 11 10 6 38 -4 20 -8 39 -10 41 -3 2 -16 -11 -30
-28 -15 -17 -32 -31 -39 -31 -7 0 -37 -13 -67 -30 -55 -30 -103 -38 -114 -19
-4 6 -13 8 -21 5 -31 -12 -11 4 44 34 31 18 88 53 125 78 64 43 68 48 63 76
-4 16 -8 31 -10 34 -3 2 -22 -14 -44 -37 -21 -23 -44 -41 -51 -41 -27 0 -21
32 13 71 19 23 33 45 31 49 -3 4 -18 10 -34 13 -24 5 -28 10 -24 27 4 16 1 20
-21 20 -34 0 -42 22 -23 62 14 30 14 34 -4 56 -10 14 -19 31 -19 38 0 20 -28
17 -34 -3 -17 -51 -143 -143 -196 -143 -28 0 -25 14 8 42 35 30 122 137 122
150 0 6 -14 8 -35 4 -27 -5 -37 -3 -41 9 -8 21 -30 19 -54 -5 -11 -11 -31 -20
-44 -20 -13 0 -33 -3 -43 -6 -16 -5 -16 -4 1 10 11 9 27 16 37 16 9 0 19 9 22
20 3 12 12 19 24 18 10 -2 19 2 20 7 1 6 -9 11 -22 12 -26 2 -55 24 -55 42 0
21 -23 22 -64 2 -40 -18 -147 -27 -146 -12 1 13 28 40 60 60 23 13 29 21 18
21 -29 0 -24 101 7 168 29 62 31 94 10 112 -13 11 -15 8 -15 -18 0 -48 -15
-46 -28 4 -16 60 -39 59 -47 -3 -11 -83 -13 -88 -48 -101 -47 -17 -75 -15 -80
6 -4 16 -5 16 -6 0 0 -10 -5 -18 -11 -18 -5 0 -10 8 -11 18 0 14 -2 13 -9 -4
-5 -12 -22 -29 -39 -37 l-30 -15 5 40 c3 21 9 50 14 63 17 45 -21 129 -59 132
-32 3 -62 43 -55 74 2 14 1 36 -5 50 l-9 24 -7 -30 c-18 -81 -55 -137 -55 -85
0 37 -45 84 -95 99 -25 7 -59 26 -76 42 -28 26 -30 33 -24 69 9 55 -14 54 -42
-2 l-21 -41 -7 36 c-4 21 -5 52 -1 70 11 62 -9 60 -39 -4 -23 -51 -30 -58 -38
-44 -5 9 -6 34 -3 55 3 21 3 46 0 54 -6 16 -35 22 -48 9 -3 -4 -15 -7 -26 -8
-19 -2 -19 -1 -3 17 15 17 15 18 -6 18 -12 0 -30 -6 -41 -12 -26 -17 -51 -1
-62 38 -13 48 -42 74 -83 76 -20 1 -41 -4 -47 -10 -29 -29 -58 -8 -58 43 0 39
-27 37 -127 -10 -102 -48 -154 -57 -191 -34 -27 17 -28 33 -2 66 11 14 20 35
20 47 0 12 21 47 46 77 40 46 44 55 28 58 -10 2 -26 -7 -37 -20 -10 -13 -24
-31 -30 -39 -7 -8 -20 -25 -28 -38 -14 -19 -17 -20 -23 -7 -3 9 1 29 9 45 17
32 20 80 6 80 -5 0 -11 -5 -13 -12 -3 -9 -6 -9 -12 0 -4 8 2 15 16 21 32 12
52 37 44 57 -6 15 -8 15 -27 -2 -17 -16 -22 -16 -29 -4 -15 23 -12 29 10 23
12 -3 20 0 20 6 0 7 4 9 10 6 6 -4 7 6 3 27 -3 18 -7 34 -7 35 -1 1 -24 -12
-52 -31 -27 -18 -74 -46 -104 -62 -30 -16 -57 -32 -60 -36 -3 -4 -29 -5 -58
-1 -51 6 -52 6 -30 21 39 26 88 75 88 89 0 7 -23 -5 -51 -26 -29 -22 -64 -45
-78 -53 -14 -7 -32 -19 -39 -25 -7 -7 -18 -13 -24 -13 -6 0 -19 -7 -28 -15 -8
-8 -41 -21 -71 -29 -31 -8 -83 -28 -117 -45 -69 -35 -92 -40 -71 -15 12 15 10
15 -25 0 -22 -9 -41 -14 -43 -12 -12 12 150 86 187 86 11 0 20 4 20 9 0 22
-101 -1 -200 -44 -124 -55 -258 -100 -267 -91 -11 11 12 49 110 182 91 123
128 192 96 179 -8 -4 -23 -20 -35 -38 -78 -120 -159 -233 -230 -323 -18 -22
-44 -28 -44 -10 0 18 21 89 35 121 30 68 15 435 -19 448 -8 3 -10 -45 -8 -165
4 -188 -8 -311 -41 -407 -25 -71 -46 -93 -70 -70 -8 8 -18 25 -21 37 -7 21
-74 72 -95 72 -42 0 -112 -118 -178 -302 -21 -59 -41 -108 -45 -108 -3 0 -30
23 -60 51 -29 28 -84 68 -123 90 -38 21 -93 60 -121 86 -48 45 -134 162 -134
184 0 5 -3 9 -7 9 -5 0 -19 17 -33 38 -14 20 -27 39 -30 42 -3 3 -14 22 -24
43 -21 40 -33 47 -38 20 -3 -15 -4 -15 -20 1 -29 28 -21 10 19 -46 49 -69 73
-95 73 -79 0 20 17 3 24 -24 11 -42 63 -117 123 -177 46 -46 55 -60 45 -70 -9
-9 -12 -9 -12 2 0 11 -3 11 -12 2 -8 -8 -18 -6 -41 10 -22 16 -42 21 -85 19
-31 -1 -58 -4 -60 -6 -7 -7 41 -23 89 -30 34 -5 52 -16 84 -50 22 -23 66 -55
99 -70 60 -28 120 -74 136 -105 22 -41 -59 -28 -184 29 -87 40 -100 39 -221
-25 -61 -31 -127 -68 -147 -81 -21 -12 -44 -23 -52 -23 -8 0 -16 -4 -18 -8 -6
-16 -67 -52 -86 -52 -12 0 -23 -4 -26 -9 -3 -5 -30 -14 -58 -21 -29 -6 -63
-16 -75 -22 -12 -6 -29 -8 -37 -5 -13 5 -16 -1 -16 -33 l0 -39 46 24 c44 24
64 25 64 4 0 -5 -22 -32 -50 -60 l-50 -51 0 36 c0 20 -4 36 -10 36 -6 0 -10
28 -10 65 0 36 3 64 8 63 4 -2 7 2 7 7 0 6 -3 9 -7 7 -5 -1 -8 8 -8 20 0 19 2
20 10 8 7 -11 10 -4 10 28 0 23 -4 42 -10 42 -5 0 -9 15 -9 33 l1 32 8 -30 c6
-23 8 -12 9 43 0 40 5 71 10 68 10 -6 18 52 20 144 1 36 6 92 11 125 9 64 15
381 12 603 -1 72 4 216 13 319 17 208 17 230 4 193 -6 -17 -7 0 -4 51 2 42 7
83 11 93 5 13 -2 16 -44 16 l-51 0 1 -262z m25 -205 c-2 -16 -4 -5 -4 22 0 28
2 40 4 28 2 -13 2 -35 0 -50z m0 -320 c-3 -10 -5 -4 -5 12 0 17 2 24 5 18 2
-7 2 -21 0 -30z m2308 -279 c-18 -18 -22 -18 -27 4 -4 15 -1 18 18 14 20 -4
21 -6 9 -18z m-2308 -16 c-3 -8 -6 -5 -6 6 -1 11 2 17 5 13 3 -3 4 -12 1 -19z
m2505 -15 c-24 -33 -89 -95 -77 -73 5 8 26 37 48 63 42 50 63 58 29 10z m-463
-96 c-13 -12 -41 -43 -61 -67 -21 -25 -38 -40 -38 -35 0 12 104 125 115 125 4
0 -3 -10 -16 -23z m497 -12 c-3 -8 -12 -15 -21 -15 -14 0 -13 3 2 26 17 26 30
18 19 -11z m-2559 -57 c-3 -7 -5 -2 -5 12 0 14 2 19 5 13 2 -7 2 -19 0 -25z
m1883 -15 c0 -7 -9 -13 -19 -13 -11 0 -21 -6 -24 -12 -2 -7 -8 -10 -12 -6 -5
5 -1 16 8 26 10 10 17 27 17 38 1 19 1 19 15 0 8 -11 15 -26 15 -33z m-1863
-75 c-2 -24 -4 -7 -4 37 0 44 2 63 4 43 2 -21 2 -57 0 -80z m1291 79 c2 -15
-1 -27 -6 -27 -5 0 -7 -11 -4 -25 3 -19 -8 -44 -42 -95 -75 -112 -147 -146
-131 -62 15 80 49 164 73 180 13 9 32 24 42 33 39 36 64 34 68 -4z m532 18 c0
-9 -9 -15 -21 -15 -18 0 -19 2 -9 15 7 8 16 15 21 15 5 0 9 -7 9 -15z m1035
-57 c-28 -22 -105 -37 -105 -21 0 15 89 51 111 46 17 -5 17 -7 -6 -25z m-1065
-3 c0 -8 -9 -23 -20 -32 -11 -10 -20 -23 -20 -31 0 -7 -4 -11 -9 -8 -14 9 0
56 22 71 26 18 27 18 27 0z m-341 -63 c-48 -53 -97 -92 -70 -56 29 38 95 104
104 104 6 0 -10 -22 -34 -48z m1540 -6 c-2 -2 -16 -7 -32 -11 -21 -6 -27 -4
-27 8 0 17 39 28 54 15 5 -4 8 -10 5 -12z m-2992 -38 c-3 -8 -6 -5 -6 6 -1 11
2 17 5 13 3 -3 4 -12 1 -19z m-20 -70 c-3 -8 -6 -5 -6 6 -1 11 2 17 5 13 3 -3
4 -12 1 -19z m20 -15 c-3 -10 -5 -4 -5 12 0 17 2 24 5 18 2 -7 2 -21 0 -30z
m832 6 c29 -10 43 -29 21 -29 -5 0 -10 4 -10 8 0 5 -12 13 -27 19 -37 14 -25
16 16 2z m826 -28 c-3 -6 -11 -11 -16 -11 -5 0 -4 6 3 14 14 16 24 13 13 -3z
m-715 -26 c23 -19 47 -35 52 -35 6 0 3 -9 -7 -20 -19 -21 -55 -27 -55 -10 0 6
-12 22 -26 35 -15 14 -23 25 -17 25 5 0 14 -5 21 -12 6 -6 15 -8 19 -3 5 4 2
10 -5 12 -12 5 -37 43 -28 43 2 0 23 -16 46 -35z m670 -18 c0 -2 -10 -12 -22
-23 l-23 -19 19 23 c18 21 26 27 26 19z m-1633 -39 c-3 -7 -5 -2 -5 12 0 14 2
19 5 13 2 -7 2 -19 0 -25z m1093 -81 c0 -1 -46 -47 -101 -102 -56 -55 -93 -87
-84 -72 20 31 185 187 185 174z m-1093 -29 c-3 -8 -6 -5 -6 6 -1 11 2 17 5 13
3 -3 4 -12 1 -19z m0 -270 c-3 -7 -5 -2 -5 12 0 14 2 19 5 13 2 -7 2 -19 0
-25z m1416 -283 c-3 -9 -8 -14 -10 -11 -3 3 -2 9 2 15 9 16 15 13 8 -4z m-23
-19 c0 -2 -8 -10 -17 -17 -16 -13 -17 -12 -4 4 13 16 21 21 21 13z m-190 -140
c0 -3 -4 -8 -10 -11 -5 -3 -10 -1 -10 4 0 6 5 11 10 11 6 0 10 -2 10 -4z
m-710 -110 c0 -2 -17 -16 -37 -31 l-38 -28 29 31 c26 28 46 40 46 28z m-70
-366 c-12 -16 -24 -30 -26 -30 -7 0 5 20 24 43 24 27 25 20 2 -13z m170 -75
c-58 -58 -106 -105 -108 -105 -8 0 98 117 147 163 92 86 67 49 -39 -58z m1204
-350 c-4 -8 -10 -15 -15 -15 -4 0 -6 7 -3 15 4 8 10 15 15 15 4 0 6 -7 3 -15z
m-1530 -97 c-21 -23 -44 -47 -49 -52 -6 -6 -19 -18 -30 -26 -15 -11 -14 -7 5
15 49 60 104 114 109 110 2 -3 -13 -24 -35 -47z m1756 12 c0 -5 -5 -10 -11
-10 -5 0 -7 5 -4 10 3 6 8 10 11 10 2 0 4 -4 4 -10z m527 -25 c-7 -13 -14 -20
-15 -14 -5 14 6 39 17 39 5 0 4 -11 -2 -25z m-917 2 c0 -2 -10 -12 -21 -23
-22 -19 -22 -19 -10 4 10 18 31 31 31 19z m356 -34 c-8 -15 -15 -22 -16 -15 0
14 22 53 28 47 2 -2 -3 -16 -12 -32z m2504 13 c0 -2 -8 -10 -17 -17 -16 -13
-17 -12 -4 4 13 16 21 21 21 13z m-2549 -33 c-8 -15 -10 -15 -11 -2 0 17 10
32 18 25 2 -3 -1 -13 -7 -23z m596 -75 c-2 -13 -4 -5 -4 17 -1 22 1 32 4 23 2
-10 2 -28 0 -40z m-368 2 c-13 -16 -25 -28 -27 -25 -5 5 37 55 45 55 2 0 -6
-13 -18 -30z m1491 10 c0 -11 -2 -20 -4 -20 -2 0 -6 9 -9 20 -3 11 -1 20 4 20
5 0 9 -9 9 -20z m-1390 -29 c-12 -17 -26 -31 -32 -31 -10 0 -4 11 31 53 24 28
25 11 1 -22z m1330 4 c0 -14 -4 -25 -10 -25 -11 0 -14 33 -3 43 11 11 13 8 13
-18z m140 15 c0 -5 -5 -10 -11 -10 -5 0 -7 5 -4 10 3 6 8 10 11 10 2 0 4 -4 4
-10z m-1220 -29 c0 -10 -7 -21 -15 -24 -12 -5 -12 -2 -3 18 13 30 18 31 18 6z
m-878 -141 l-149 -150 58 -53 c32 -28 59 -57 59 -63 0 -6 7 -17 15 -24 8 -7
15 -27 14 -44 0 -19 -3 -25 -7 -16 -4 8 -19 33 -33 55 -24 37 -43 56 -140 140
-27 24 -31 30 -16 33 9 2 17 8 17 13 0 5 4 9 10 9 5 0 7 -7 4 -15 -4 -8 -1
-15 5 -15 6 0 11 7 11 16 0 8 4 13 9 10 7 -4 145 127 170 161 13 18 104 93
113 93 5 0 -58 -68 -140 -150z m1012 121 c-9 -16 -64 -75 -122 -132 -88 -87
-99 -96 -71 -54 19 27 63 76 98 110 35 33 72 70 84 83 28 30 32 28 11 -7z
m903 -28 c-3 -10 -5 -4 -5 12 0 17 2 24 5 18 2 -7 2 -21 0 -30z m-3036 -6
c-13 -12 -20 -15 -15 -7 12 22 28 39 33 34 3 -3 -6 -15 -18 -27z m1690 0 c-10
-9 -11 -8 -5 6 3 10 9 15 12 12 3 -3 0 -11 -7 -18z m-267 -82 c-47 -50 -97
-112 -111 -140 -26 -50 -102 -149 -109 -142 -6 5 86 141 97 145 5 2 9 10 9 19
0 21 51 91 102 139 44 42 90 76 95 71 1 -2 -36 -43 -83 -92z m-1454 52 c0 -2
-12 -14 -27 -28 l-28 -24 24 28 c23 25 31 32 31 24z m3027 -34 c-3 -10 -5 -4
-5 12 0 17 2 24 5 18 2 -7 2 -21 0 -30z m-20 -10 c-3 -10 -5 -4 -5 12 0 17 2
24 5 18 2 -7 2 -21 0 -30z m-1448 -20 c-27 -35 -89 -95 -89 -87 0 5 21 30 46
57 46 47 69 63 43 30z m-2080 -37 c-24 -25 -45 -43 -48 -41 -5 6 72 84 83 85
5 0 -10 -20 -35 -44z m1201 -6 c-20 -28 -40 -39 -40 -23 0 10 42 53 52 53 5 0
0 -13 -12 -30z m930 -23 c0 -2 -12 -14 -27 -28 l-28 -24 24 28 c23 25 31 32
31 24z m-1098 -43 c-6 -11 -11 -13 -16 -5 -4 6 -2 11 3 11 6 0 11 8 12 18 0 9
3 12 5 5 3 -7 1 -20 -4 -29z m322 30 c15 -6 23 -34 10 -34 -7 0 -34 27 -34 34
0 8 5 7 24 0z m-237 -39 c-4 -8 -11 -15 -17 -15 -7 0 -7 6 0 21 13 23 26 19
17 -6z m653 21 c0 -3 -4 -8 -10 -11 -5 -3 -10 -1 -10 4 0 6 5 11 10 11 6 0 10
-2 10 -4z m-690 -41 c7 -9 8 -15 2 -15 -5 0 -12 7 -16 15 -3 8 -4 15 -2 15 2
0 9 -7 16 -15z m990 0 c-7 -9 -15 -13 -17 -11 -7 7 7 26 19 26 6 0 6 -6 -2
-15z m-64 -42 c-7 -7 -26 7 -26 19 0 6 6 6 15 -2 9 -7 13 -15 11 -17z m-16
-42 c0 -27 -3 -32 -10 -21 -7 11 -10 6 -11 -20 0 -19 -3 -29 -6 -22 -7 17 -33
15 -33 -3 0 -8 -9 -19 -20 -25 -11 -6 -20 -17 -20 -25 0 -7 -3 -15 -7 -17 -12
-5 -63 -111 -57 -117 3 -3 9 1 14 9 7 11 10 8 10 -12 0 -22 -5 -28 -21 -28
-11 0 -26 6 -33 13 -7 6 -25 21 -39 32 -15 11 -27 26 -27 33 0 10 4 10 16 -2
21 -21 24 -20 24 7 0 18 -2 19 -10 7 -8 -13 -10 -12 -10 3 0 12 8 17 30 17 25
0 30 4 29 23 0 12 -3 16 -6 10 -2 -7 -11 -13 -19 -13 -10 0 -5 13 17 40 18 22
38 40 46 40 7 0 13 5 13 11 0 6 6 16 13 23 6 7 23 27 37 44 14 18 31 32 38 32
6 0 12 5 12 11 0 8 5 8 15 -1 8 -7 15 -29 15 -49z m-1237 34 c-3 -9 -8 -14
-10 -11 -3 3 -2 9 2 15 9 16 15 13 8 -4z m928 -72 c7 -13 9 -26 6 -30 -4 -3
-7 1 -7 11 0 9 -4 15 -8 12 -5 -3 -16 9 -26 25 -18 30 -18 30 2 18 12 -7 26
-23 33 -36z m1876 5 c-3 -8 -6 -5 -6 6 -1 11 2 17 5 13 3 -3 4 -12 1 -19z
m-1621 -67 c-9 -10 -13 -21 -9 -26 5 -4 3 -5 -4 -2 -6 4 -14 1 -16 -5 -3 -7
-6 -8 -6 -2 -1 5 8 20 19 32 11 12 20 27 21 34 0 10 2 10 6 0 3 -7 -2 -21 -11
-31z m-1565 -8 c-16 -30 -141 -146 -141 -132 0 14 141 161 148 155 2 -3 -1
-13 -7 -23z m1316 -70 c-3 -10 -5 -2 -5 17 0 19 2 27 5 18 2 -10 2 -26 0 -35z
m336 30 c-7 -2 -13 -12 -13 -20 0 -9 -3 -14 -6 -10 -10 10 4 37 18 36 10 0 10
-2 1 -6z m-136 -45 c-3 -7 -5 -2 -5 12 0 14 2 19 5 13 2 -7 2 -19 0 -25z
m-1468 0 c-7 -13 -13 -35 -14 -50 -2 -15 -9 -33 -16 -40 -22 -21 -95 -73 -81
-58 6 8 12 21 12 29 0 11 -4 10 -20 -4 -24 -21 -38 -14 -19 10 45 52 132 132
147 135 1 0 -3 -10 -9 -22z m1554 -28 c-3 -11 -7 -20 -9 -20 -2 0 -4 9 -4 20
0 11 4 20 9 20 5 0 7 -9 4 -20z m587 -5 c0 -8 -4 -15 -10 -15 -5 0 -7 7 -4 15
4 8 8 15 10 15 2 0 4 -7 4 -15z m47 -17 c-3 -7 -5 -2 -5 12 0 14 2 19 5 13 2
-7 2 -19 0 -25z m-660 -20 c-3 -8 -6 -5 -6 6 -1 11 2 17 5 13 3 -3 4 -12 1
-19z m-1736 -11 c-10 -9 -11 -8 -5 6 3 10 9 15 12 12 3 -3 0 -11 -7 -18z
m2409 -32 c0 -5 -5 -3 -10 5 -5 8 -10 20 -10 25 0 6 5 3 10 -5 5 -8 10 -19 10
-25z m1417 -332 c-3 -10 -5 -4 -5 12 0 17 2 24 5 18 2 -7 2 -21 0 -30z m136
-88 c-3 -9 -8 -14 -10 -11 -3 3 -2 9 2 15 9 16 15 13 8 -4z m-4236 -77 c-3 -8
-6 -5 -6 6 -1 11 2 17 5 13 3 -3 4 -12 1 -19z m-150 -65 c-2 -16 -4 -3 -4 27
0 30 2 43 4 28 2 -16 2 -40 0 -55z m4066 -493 c-3 -11 -7 -20 -9 -20 -2 0 -4
9 -4 20 0 11 4 20 9 20 5 0 7 -9 4 -20z m-98 -120 c-3 -5 -11 -10 -16 -10 -6
0 -7 5 -4 10 3 6 11 10 16 10 6 0 7 -4 4 -10z m-21 -35 c-4 -8 -8 -15 -10 -15
-2 0 -4 7 -4 15 0 8 4 15 10 15 5 0 7 -7 4 -15z m135 -53 c23 -43 42 -182 42
-302 0 -69 3 -120 7 -114 4 7 8 -14 9 -47 1 -32 6 -66 11 -76 18 -34 35 -160
28 -206 -8 -52 -33 -89 -62 -92 -11 0 -26 -5 -33 -10 -10 -6 -12 -4 -6 5 9 15
-22 7 -77 -21 -21 -11 -38 -16 -38 -12 0 5 -5 1 -10 -7 -7 -11 -27 -15 -80
-13 -41 1 -70 -2 -70 -8 0 -6 -4 -8 -9 -4 -5 3 -12 1 -16 -5 -8 -13 -52 -13
-60 0 -3 6 -1 10 5 10 12 0 40 24 40 35 0 4 -7 13 -15 21 -13 14 -15 13 -16
-3 0 -16 -1 -16 -9 2 -5 11 -9 16 -10 10 0 -5 -6 -3 -13 5 -7 8 -21 20 -32 27
-11 6 -18 17 -16 25 3 7 5 24 6 39 2 32 91 213 117 236 16 14 23 15 38 5 23
-14 30 -15 30 -3 0 5 -9 11 -20 14 -12 3 -20 14 -20 26 0 11 -8 24 -17 29 -15
9 -15 11 -1 25 9 9 19 13 23 9 4 -4 6 -2 5 3 -5 21 1 34 23 62 35 42 107 180
107 204 0 22 24 70 50 100 8 10 21 25 28 33 17 21 49 20 61 -2z m-2 -878 c2
-10 0 -14 -3 -8 -3 7 -15 9 -26 6 -21 -5 -21 -6 -2 -13 17 -7 17 -8 1 -8 -10
-1 -15 -5 -12 -11 3 -5 -1 -10 -9 -10 -9 0 -16 5 -16 10 0 6 5 10 11 10 5 0 7
5 4 11 -8 12 24 40 40 35 6 -1 11 -11 12 -22z m-2237 -192 c0 -13 -12 -22 -22
-16 -10 6 -1 24 13 24 5 0 9 -4 9 -8z m400 -113 c0 -11 -4 -18 -9 -14 -5 3
-18 -22 -27 -55 -10 -33 -24 -62 -31 -65 -10 -3 -11 0 -4 14 6 10 18 40 27 66
13 40 32 73 42 75 1 0 2 -9 2 -21z m-11 -102 c-10 -31 -14 -36 -20 -21 -8 23
0 46 12 38 5 -3 10 10 10 28 1 20 3 26 6 14 3 -11 -1 -37 -8 -59z m-32 -69
c-3 -7 -5 -2 -5 12 0 14 2 19 5 13 2 -7 2 -19 0 -25z m-217 -121 c0 -2 -12
-14 -26 -28 -25 -22 -26 -23 -15 -2 9 18 19 26 39 32 1 1 2 0 2 -2z m468 -33
c3 -35 -25 -75 -38 -53 -10 15 -30 3 -30 -18 0 -9 6 -13 14 -10 10 4 13 1 9
-9 -6 -17 -15 -18 -30 -3 -13 13 -7 37 14 57 7 8 11 18 8 23 -4 5 -1 9 4 9 6
0 11 9 11 21 0 35 34 19 38 -17z m-535 -37 c-10 -17 -83 -81 -83 -73 0 9 83
96 88 91 2 -2 0 -10 -5 -18z m1307 16 c0 -5 -11 -21 -25 -37 -18 -21 -25 -25
-25 -13 0 10 5 17 10 17 6 0 10 6 10 14 0 12 8 19 28 25 1 1 2 -2 2 -6z
m-1629 -50 c-9 -15 -10 -12 -10 17 0 29 1 32 10 18 7 -12 7 -24 0 -35z m1830
37 c0 12 2 12 6 1 5 -11 7 -11 14 0 7 11 9 10 9 -4 0 -15 3 -16 20 -7 14 8 20
8 20 0 0 -16 55 -67 68 -62 7 2 12 -2 13 -10 1 -23 18 26 18 55 1 15 6 27 11
27 13 0 12 -57 -3 -100 -8 -24 -18 -35 -32 -35 -11 0 -26 -5 -33 -12 -9 -9
-24 -4 -64 23 -29 19 -59 34 -68 34 -12 1 -12 3 3 14 23 18 22 29 -3 14 -26
-17 -33 -37 -18 -57 10 -13 10 -14 -2 -3 -19 17 -33 15 -26 -4 3 -8 2 -12 -4
-9 -14 9 -12 -8 3 -24 10 -11 10 -13 0 -7 -8 5 -13 1 -14 -11 0 -12 -2 -13 -6
-5 -6 16 -33 -31 -33 -58 0 -29 -21 -80 -31 -74 -5 3 -9 0 -9 -5 0 -19 -20
-12 -21 7 0 15 -2 14 -10 -3 -6 -14 -8 7 -6 64 1 56 6 86 15 89 6 2 12 9 12
15 0 16 85 107 99 107 6 0 11 -6 12 -12 0 -7 5 2 10 20 5 18 14 30 19 27 6 -4
10 0 10 7 0 9 3 9 10 -2 9 -13 10 -13 11 0z m-938 -82 c-21 -36 -164 -191
-170 -184 -3 2 26 42 64 89 37 47 76 97 87 111 25 35 41 22 19 -16z m-113 12
c0 -5 -18 -28 -41 -52 -23 -24 -47 -52 -55 -63 -8 -11 -14 -14 -14 -6 0 15 32
64 68 104 26 28 42 34 42 17z m-557 -35 c-3 -9 -8 -14 -10 -11 -3 3 -2 9 2 15
9 16 15 13 8 -4z m299 -62 c-25 -35 -70 -78 -76 -72 -5 5 87 107 93 103 2 -2
-6 -15 -17 -31z m1097 -135 c1 -5 -3 -8 -9 -8 -5 0 -10 12 -9 28 0 24 1 25 9
7 5 -11 9 -23 9 -27z m201 -7 c0 -5 -7 -12 -16 -15 -14 -5 -15 -4 -4 9 14 17
20 19 20 6z m-30 -35 c0 -2 -7 -9 -15 -16 -13 -11 -14 -10 -9 4 5 14 24 23 24
12z m-1758 -475 c7 10 8 8 5 -8 -6 -27 9 -31 16 -5 4 13 5 11 6 -5 1 -14 -5
-23 -14 -23 -16 0 -36 31 -34 52 1 7 4 4 6 -6 4 -15 7 -16 15 -5z m-42 -12 c0
-11 -4 -18 -10 -14 -5 3 -7 12 -3 20 7 21 13 19 13 -6z m-151 -26 c-20 -21
-57 -60 -83 -88 -27 -27 -56 -69 -67 -93 -10 -24 -31 -62 -47 -85 -15 -23 -34
-55 -41 -72 -16 -38 -54 -95 -63 -95 -9 0 1 30 17 50 7 8 20 35 29 59 31 81
136 239 199 300 68 66 115 86 56 24z m150 -14 c9 -1 19 -1 24 0 4 0 7 -8 7
-19 0 -11 5 -20 10 -20 6 0 10 -4 10 -9 0 -6 -9 -8 -20 -6 -15 3 -20 -1 -20
-18 0 -18 2 -19 10 -7 11 17 13 6 4 -27 -4 -13 -10 -20 -15 -17 -5 3 -10 2
-10 -3 -1 -4 -3 -17 -4 -28 -2 -11 -6 -29 -11 -39 -5 -14 -4 -17 4 -12 7 4 12
2 12 -3 0 -6 -5 -11 -11 -11 -5 0 -8 -4 -5 -9 6 -9 -23 -112 -34 -121 -4 -3
-15 -27 -25 -55 -10 -27 -29 -63 -42 -78 -13 -16 -23 -33 -23 -39 0 -5 -13
-28 -29 -51 -32 -46 -48 -87 -33 -87 5 0 15 12 23 28 7 15 26 43 41 63 15 20
28 39 28 42 0 11 81 125 93 130 6 2 50 -25 97 -60 47 -35 135 -89 195 -119
127 -63 140 -74 130 -103 -7 -22 -104 -86 -164 -109 -90 -34 -291 -105 -336
-118 -27 -8 -65 -22 -84 -31 -52 -24 -146 -27 -221 -8 -36 9 -78 20 -95 24
-33 8 -34 11 -16 121 25 158 103 334 237 536 19 28 34 54 34 57 0 8 27 41 90
112 25 27 52 62 60 78 18 36 38 34 55 -5 12 -27 14 -29 15 -11 0 12 -5 25 -11
28 -6 4 -8 14 -5 22 3 8 1 11 -4 8 -12 -7 -14 8 -2 19 4 5 11 -4 16 -18 6 -14
17 -27 25 -27z"/>
<path d="M5515 5519 c-10 -16 -12 -78 -2 -72 4 3 7 15 5 28 -1 12 3 30 11 39
8 9 9 16 3 16 -6 0 -14 -5 -17 -11z"/>
<path d="M5480 5467 c0 -14 -8 -30 -17 -36 -10 -5 -14 -13 -10 -17 5 -5 12 -2
17 6 6 8 10 11 11 5 0 -5 5 3 10 20 5 18 5 33 -1 39 -7 7 -10 1 -10 -17z"/>
<path d="M5445 5390 c3 -5 8 -10 11 -10 2 0 4 5 4 10 0 6 -5 10 -11 10 -5 0
-7 -4 -4 -10z"/>
<path d="M7250 3616 c0 -9 5 -16 10 -16 6 0 10 4 10 9 0 6 -4 13 -10 16 -5 3
-10 -1 -10 -9z"/>
<path d="M7310 3520 c10 -19 40 -28 40 -12 0 13 -23 32 -37 32 -11 0 -11 -5
-3 -20z"/>
<path d="M7360 3505 c0 -11 25 -49 48 -72 12 -13 22 -28 22 -33 0 -6 5 -10 10
-10 19 0 10 38 -16 69 -25 30 -64 58 -64 46z"/>
<path d="M7461 3374 c0 -11 3 -14 6 -6 3 7 2 16 -1 19 -3 4 -6 -2 -5 -13z"/>
<path d="M6780 2439 c0 -5 5 -7 10 -4 6 3 10 8 10 11 0 2 -4 4 -10 4 -5 0 -10
-5 -10 -11z"/>
<path d="M850 9551 c0 -6 4 -13 10 -16 6 -3 7 1 4 9 -7 18 -14 21 -14 7z"/>
<path d="M741 9504 c0 -11 3 -14 6 -6 3 7 2 16 -1 19 -3 4 -6 -2 -5 -13z"/>
<path d="M830 9489 c0 -15 18 -19 23 -6 3 8 -1 14 -9 14 -8 0 -14 -4 -14 -8z"/>
<path d="M250 9475 c0 -8 2 -15 4 -15 2 0 6 7 10 15 3 8 1 15 -4 15 -6 0 -10
-7 -10 -15z"/>
<path d="M9571 9474 c0 -11 3 -14 6 -6 3 7 2 16 -1 19 -3 4 -6 -2 -5 -13z"/>
<path d="M301 9434 c0 -11 3 -14 6 -6 3 7 2 16 -1 19 -3 4 -6 -2 -5 -13z"/>
<path d="M250 9380 c19 -13 30 -13 30 0 0 6 -10 10 -22 10 -19 0 -20 -2 -8
-10z"/>
<path d="M230 9353 c0 -12 5 -25 10 -28 13 -8 13 15 0 35 -8 12 -10 11 -10 -7z"/>
<path d="M642 9350 c0 -14 2 -19 5 -12 2 6 2 18 0 25 -3 6 -5 1 -5 -13z"/>
<path d="M182 9335 c0 -16 2 -22 5 -12 2 9 2 23 0 30 -3 6 -5 -1 -5 -18z"/>
<path d="M140 9314 c0 -8 5 -12 10 -9 6 4 8 11 5 16 -9 14 -15 11 -15 -7z"/>
<path d="M200 9311 c0 -12 4 -21 9 -21 6 0 12 -19 14 -42 l4 -43 1 48 c1 32
-3 54 -13 63 -13 14 -15 13 -15 -5z"/>
<path d="M402 9300 c0 -14 2 -19 5 -12 2 6 2 18 0 25 -3 6 -5 1 -5 -13z"/>
<path d="M257 9273 c-3 -16 -1 -32 4 -37 5 -6 9 4 9 27 0 44 -6 48 -13 10z"/>
<path d="M133 9256 c0 -19 2 -24 8 -15 7 11 9 11 9 1 0 -7 5 -10 11 -6 6 3 15
0 20 -7 7 -12 9 -11 9 1 0 25 -17 43 -33 37 -9 -3 -18 -1 -20 6 -2 7 -4 -1 -4
-17z"/>
<path d="M1010 9254 c0 -8 5 -12 10 -9 6 3 10 10 10 16 0 5 -4 9 -10 9 -5 0
-10 -7 -10 -16z"/>
<path d="M202 9230 c0 -14 2 -19 5 -12 2 6 2 18 0 25 -3 6 -5 1 -5 -13z"/>
<path d="M332 9215 c0 -16 2 -22 5 -12 2 9 2 23 0 30 -3 6 -5 -1 -5 -18z"/>
<path d="M147 9213 c-3 -5 -1 -17 4 -28 7 -17 8 -17 8 8 1 27 -4 34 -12 20z"/>
<path d="M110 9194 c8 -10 15 -20 16 -22 1 -2 5 1 8 7 4 5 -4 15 -16 22 -22
12 -22 11 -8 -7z"/>
<path d="M8071 9194 c0 -11 3 -14 6 -6 3 7 2 16 -1 19 -3 4 -6 -2 -5 -13z"/>
<path d="M182 9180 c0 -14 2 -19 5 -12 2 6 2 18 0 25 -3 6 -5 1 -5 -13z"/>
<path d="M202 9180 c0 -14 2 -19 5 -12 2 6 2 18 0 25 -3 6 -5 1 -5 -13z"/>
<path d="M270 9179 c0 -13 5 -31 10 -39 7 -11 9 -6 7 18 -4 39 -17 55 -17 21z"/>
<path d="M1181 9164 c0 -11 3 -14 6 -6 3 7 2 16 -1 19 -3 4 -6 -2 -5 -13z"/>
<path d="M140 9122 c0 -22 -2 -46 -3 -54 -2 -7 -2 -10 0 -5 3 4 8 5 13 2 7 -4
1 85 -6 94 -2 2 -4 -14 -4 -37z"/>
<path d="M110 9108 c0 -25 3 -29 10 -18 13 20 13 50 0 50 -5 0 -10 -15 -10
-32z"/>
<path d="M222 9095 c0 -16 2 -22 5 -12 2 9 2 23 0 30 -3 6 -5 -1 -5 -18z"/>
<path d="M201 9094 c0 -11 3 -14 6 -6 3 7 2 16 -1 19 -3 4 -6 -2 -5 -13z"/>
<path d="M50 9076 c0 -22 3 -27 11 -19 8 8 8 16 0 30 -9 16 -10 14 -11 -11z"/>
<path d="M111 9038 c-1 -21 15 -32 25 -17 4 7 3 9 -4 5 -6 -3 -13 2 -15 11 -4
16 -5 16 -6 1z"/>
<path d="M1060 9008 c-2 -5 -3 -12 -4 -16 0 -5 -9 -16 -18 -26 -10 -10 -18
-20 -18 -24 0 -4 12 5 26 20 15 14 24 32 21 39 -3 8 -6 11 -7 7z"/>
<path d="M402 8847 c-14 -40 -15 -57 -3 -57 7 0 24 81 17 87 -1 1 -8 -12 -14
-30z"/>
<path d="M242 8830 c0 -14 2 -19 5 -12 2 6 2 18 0 25 -3 6 -5 1 -5 -13z"/>
<path d="M51 8764 c0 -11 3 -14 6 -6 3 7 2 16 -1 19 -3 4 -6 -2 -5 -13z"/>
<path d="M5644 8762 c-47 -20 -101 -58 -93 -66 4 -5 36 13 126 71 25 16 15 15
-33 -5z"/>
<path d="M360 8750 c0 -11 2 -20 4 -20 2 0 6 9 9 20 3 11 1 20 -4 20 -5 0 -9
-9 -9 -20z"/>
<path d="M222 8725 c0 -16 2 -22 5 -12 2 9 2 23 0 30 -3 6 -5 -1 -5 -18z"/>
<path d="M61 8714 c0 -11 3 -14 6 -6 3 7 2 16 -1 19 -3 4 -6 -2 -5 -13z"/>
<path d="M338 8665 c2 -14 6 -25 8 -25 2 0 4 11 4 25 0 14 -4 25 -9 25 -4 0
-6 -11 -3 -25z"/>
<path d="M152 8655 c0 -16 2 -22 5 -12 2 9 2 23 0 30 -3 6 -5 -1 -5 -18z"/>
<path d="M305 8616 c-14 -16 -17 -74 -4 -81 6 -4 10 -1 8 6 -1 8 -1 28 1 44 1
26 3 27 10 10 6 -13 9 -15 9 -5 1 25 -12 40 -24 26z"/>
<path d="M4090 8621 c0 -6 5 -13 10 -16 6 -3 10 1 10 9 0 9 -4 16 -10 16 -5 0
-10 -4 -10 -9z"/>
<path d="M201 8594 c0 -11 3 -14 6 -6 3 7 2 16 -1 19 -3 4 -6 -2 -5 -13z"/>
<path d="M5758 8543 c6 -2 18 -2 25 0 6 3 1 5 -13 5 -14 0 -19 -2 -12 -5z"/>
<path d="M252 8500 c0 -14 2 -19 5 -12 2 6 2 18 0 25 -3 6 -5 1 -5 -13z"/>
<path d="M121 8484 c0 -11 3 -14 6 -6 3 7 2 16 -1 19 -3 4 -6 -2 -5 -13z"/>
<path d="M6460 8477 c-14 -6 -31 -17 -38 -24 -7 -7 -17 -13 -21 -13 -4 0 -14
-11 -21 -25 -7 -13 -21 -27 -31 -30 -9 -3 -20 -13 -23 -21 -4 -10 -2 -13 7 -8
25 15 72 50 92 67 11 10 35 27 53 38 17 12 32 23 32 25 0 7 -24 3 -50 -9z"/>
<path d="M222 8375 c0 -16 2 -22 5 -12 2 9 2 23 0 30 -3 6 -5 -1 -5 -18z"/>
<path d="M4145 8360 c9 -14 86 -63 91 -57 4 4 -80 67 -91 67 -3 0 -3 -5 0 -10z"/>
<path d="M152 8280 c0 -14 2 -19 5 -12 2 6 2 18 0 25 -3 6 -5 1 -5 -13z"/>
<path d="M181 8284 c0 -11 3 -14 6 -6 3 7 2 16 -1 19 -3 4 -6 -2 -5 -13z"/>
<path d="M201 8274 c0 -11 3 -14 6 -6 3 7 2 16 -1 19 -3 4 -6 -2 -5 -13z"/>
<path d="M4697 8193 c-23 -71 -20 -91 4 -23 11 30 18 59 16 64 -2 6 -11 -13
-20 -41z"/>
<path d="M314 8216 c-6 -6 -31 -28 -55 -49 -24 -21 -38 -37 -30 -35 18 4 107
85 101 91 -3 3 -10 0 -16 -7z"/>
<path d="M4541 8214 c0 -11 3 -14 6 -6 3 7 2 16 -1 19 -3 4 -6 -2 -5 -13z"/>
<path d="M2 7576 c-1 -335 0 -607 2 -605 4 4 18 339 17 397 -1 17 4 32 9 32 6
0 10 7 10 15 0 8 -7 15 -16 15 -15 0 -16 14 -10 138 3 75 6 171 7 212 0 41 2
69 5 63 3 -7 15 -13 27 -13 l22 0 -21 18 c-28 22 -34 51 -43 207 -5 84 -8 -83
-9 -479z"/>
<path d="M141 8164 c0 -11 3 -14 6 -6 3 7 2 16 -1 19 -3 4 -6 -2 -5 -13z"/>
<path d="M33 8085 c0 -33 2 -45 4 -27 2 18 2 45 0 60 -2 15 -4 0 -4 -33z"/>
<path d="M6990 8125 c0 -8 2 -15 4 -15 2 0 6 7 10 15 3 8 1 15 -4 15 -6 0 -10
-7 -10 -15z"/>
<path d="M48 8025 c-4 -86 -2 -97 12 -75 12 18 12 107 0 135 -5 13 -9 -6 -12
-60z"/>
<path d="M82 8070 c0 -14 2 -19 5 -12 2 6 2 18 0 25 -3 6 -5 1 -5 -13z"/>
<path d="M33 7600 c0 -30 2 -43 4 -27 2 15 2 39 0 55 -2 15 -4 2 -4 -28z"/>
<path d="M7627 7643 c-4 -3 -7 -11 -7 -17 0 -6 5 -5 12 2 6 6 9 14 7 17 -3 3
-9 2 -12 -2z"/>
<path d="M51 7594 c0 -11 3 -14 6 -6 3 7 2 16 -1 19 -3 4 -6 -2 -5 -13z"/>
<path d="M53 7515 c0 -27 2 -38 4 -22 2 15 2 37 0 50 -2 12 -4 0 -4 -28z"/>
<path d="M56 7421 c-4 -7 -5 -15 -2 -18 9 -9 19 4 14 18 -4 11 -6 11 -12 0z"/>
<path d="M4 6265 c0 -353 2 -460 5 -308 3 127 9 235 14 239 4 4 7 2 7 -4 0 -7
5 -12 10 -12 13 0 13 37 0 45 -8 5 -8 11 -1 19 6 7 7 17 3 22 -21 23 -35 97
-30 156 3 35 3 135 -1 223 -5 106 -8 -22 -7 -380z"/>
<path d="M33 6735 c0 -22 2 -30 4 -17 2 12 2 30 0 40 -3 9 -5 -1 -4 -23z"/>
<path d="M81 6714 c0 -11 3 -14 6 -6 3 7 2 16 -1 19 -3 4 -6 -2 -5 -13z"/>
<path d="M31 6434 c0 -11 3 -14 6 -6 3 7 2 16 -1 19 -3 4 -6 -2 -5 -13z"/>
<path d="M8581 6385 c-13 -7 -32 -12 -43 -10 -10 2 -16 0 -13 -6 4 -5 -8 -9
-24 -9 -17 0 -31 -4 -31 -10 0 -5 7 -10 16 -10 8 0 12 -4 9 -10 -3 -5 -1 -10
4 -10 6 0 11 3 11 8 0 4 27 18 60 30 33 13 60 28 60 33 0 12 -20 10 -49 -6z"/>
<path d="M61 6234 c0 -11 3 -14 6 -6 3 7 2 16 -1 19 -3 4 -6 -2 -5 -13z"/>
<path d="M62 6190 c0 -14 2 -19 5 -12 2 6 2 18 0 25 -3 6 -5 1 -5 -13z"/>
<path d="M7510 5940 c0 -5 7 -10 16 -10 8 0 12 5 9 10 -3 6 -10 10 -16 10 -5
0 -9 -4 -9 -10z"/>
<path d="M7665 5880 c-11 -5 -18 -9 -15 -10 27 -8 40 -6 40 6 0 8 -1 14 -2 13
-2 0 -12 -4 -23 -9z"/>
<path d="M7615 5870 c3 -5 8 -10 11 -10 2 0 4 5 4 10 0 6 -5 10 -11 10 -5 0
-7 -4 -4 -10z"/>
<path d="M7252 5700 c0 -14 2 -19 5 -12 2 6 2 18 0 25 -3 6 -5 1 -5 -13z"/>
<path d="M7277 5654 c-4 -4 -7 -14 -7 -23 0 -11 3 -12 11 -4 6 6 10 16 7 23
-2 6 -7 8 -11 4z"/>
<path d="M7251 5598 c-1 -21 4 -38 9 -38 11 0 11 14 0 50 -7 22 -8 21 -9 -12z"/>
<path d="M4885 5581 c-11 -5 -51 -18 -88 -30 -64 -21 -118 -50 -149 -82 -55
-56 -205 -324 -196 -351 4 -10 48 67 48 83 0 5 17 35 37 67 20 31 48 75 62 97
14 22 43 57 64 78 33 32 42 36 55 25 13 -11 14 -9 8 12 -6 22 -5 23 6 9 12
-14 15 -15 27 -2 12 14 15 13 24 -3 7 -13 7 -19 -1 -22 -7 -2 -12 -8 -12 -14
0 -6 6 -6 15 2 8 7 15 19 15 26 0 8 4 14 9 14 5 0 11 9 13 21 4 26 89 58 172
64 32 2 61 6 64 9 8 9 -151 6 -173 -3z"/>
<path d="M5095 5560 c3 -5 16 -15 28 -21 22 -12 22 -12 3 10 -19 21 -43 30
-31 11z"/>
<path d="M5956 5545 c-3 -8 -1 -15 4 -15 6 0 10 7 10 15 0 8 -2 15 -4 15 -2 0
-6 -7 -10 -15z"/>
<path d="M1 5196 c0 -198 2 -356 6 -353 3 4 6 111 5 237 -1 127 2 247 6 268 6
23 4 70 -3 122 -11 77 -13 50 -14 -274z"/>
<path d="M7230 5469 c-16 -30 -8 -31 13 -3 10 13 13 24 8 24 -6 0 -15 -9 -21
-21z"/>
<path d="M4258 5475 c-3 -6 -9 -27 -13 -48 -4 -21 -13 -37 -21 -37 -8 0 -14
-4 -14 -10 0 -19 25 -5 43 24 10 15 17 40 15 55 -2 14 -6 21 -10 16z"/>
<path d="M7199 5438 c4 -28 6 -29 9 -9 2 13 0 27 -5 32 -6 6 -7 -3 -4 -23z"/>
<path d="M4320 5395 c0 -8 2 -15 4 -15 2 0 6 7 10 15 3 8 1 15 -4 15 -6 0 -10
-7 -10 -15z"/>
<path d="M4137 5353 c-11 -10 -8 -43 3 -43 6 0 10 11 10 25 0 26 -2 29 -13 18z"/>
<path d="M6206 5333 c-6 -14 -5 -15 5 -6 7 7 10 15 7 18 -3 3 -9 -2 -12 -12z"/>
<path d="M5028 5317 c-55 -14 -78 -25 -78 -35 0 -8 -3 -13 -6 -9 -7 7 -54 -33
-54 -47 0 -6 -25 -35 -55 -64 -30 -29 -55 -57 -55 -61 0 -4 -8 -17 -18 -29
-15 -17 -21 -19 -31 -9 -10 9 -11 9 -6 -3 4 -12 -1 -15 -22 -14 -16 1 -36 -5
-45 -14 -10 -8 -18 -11 -18 -6 0 5 9 16 20 24 11 8 20 20 20 28 0 11 -3 10
-15 -2 -8 -8 -25 -23 -38 -33 -13 -10 -36 -38 -52 -62 -24 -39 -27 -51 -22
-103 3 -32 11 -69 19 -81 8 -12 20 -42 27 -67 18 -63 36 -88 78 -105 68 -28
185 -154 209 -225 7 -19 25 -45 41 -57 28 -22 30 -22 63 -5 18 9 37 24 40 32
4 8 12 25 18 37 16 31 15 41 -12 98 -23 47 -24 51 -9 85 41 94 45 110 39 144
-4 22 -13 36 -21 36 -18 0 -19 12 -2 29 10 11 8 11 -10 2 -19 -10 -23 -9 -23
3 0 13 57 39 76 35 5 -1 17 1 27 6 10 4 28 3 40 -2 87 -40 117 -37 149 16 9
14 32 51 51 81 38 59 58 130 37 130 -6 0 -14 -9 -17 -19 -3 -11 -11 -17 -18
-15 -7 3 -16 0 -21 -7 -4 -8 -3 -10 4 -5 16 10 15 -6 -3 -40 l-15 -29 -1 40
c-1 39 -2 39 -9 10 -4 -16 -8 -25 -9 -20 -1 6 -6 3 -11 -5 -8 -12 -10 -10 -11
10 l-1 25 -10 -27 c-11 -33 -28 -37 -28 -8 0 11 -4 20 -10 20 -5 0 -10 -5 -10
-10 0 -20 -93 -99 -124 -106 -17 -4 -56 -20 -86 -36 -68 -35 -167 -59 -235
-57 -34 1 -65 -5 -98 -21 l-48 -22 -19 23 c-11 12 -19 27 -17 33 6 18 88 45
137 46 84 1 163 29 293 103 76 44 126 102 175 205 68 141 66 164 -19 166 -30
1 -58 4 -64 7 -5 3 -45 -3 -87 -14z m-98 -156 c0 -3 14 -12 31 -20 17 -7 33
-21 37 -30 3 -9 10 -19 16 -23 6 -4 -16 -5 -49 -2 -33 3 -73 5 -90 5 -16 0
-37 3 -45 8 -14 10 -7 18 59 67 15 12 41 8 41 -5z m130 -83 c0 -6 -6 -5 -15 2
-8 7 -15 14 -15 16 0 2 7 1 15 -2 8 -4 15 -11 15 -16z m-473 -195 c-3 -10 -5
-2 -5 17 0 19 2 27 5 18 2 -10 2 -26 0 -35z m223 -324 c0 -6 -4 -7 -10 -4 -5
3 -10 11 -10 16 0 6 5 7 10 4 6 -3 10 -11 10 -16z m53 -23 c4 4 7 -2 7 -13 0
-11 7 -26 15 -33 10 -9 15 -9 15 -1 0 6 -4 11 -9 11 -6 0 -9 9 -8 19 0 10 7
17 13 14 8 -3 13 -24 12 -56 l0 -52 -30 35 c-49 57 -61 79 -53 97 6 16 8 16
19 -5 7 -12 15 -19 19 -16z"/>
<path d="M4102 5305 c0 -16 2 -22 5 -12 2 9 2 23 0 30 -3 6 -5 -1 -5 -18z"/>
<path d="M4164 5246 c-3 -9 -12 -16 -20 -16 -8 0 -14 -4 -14 -10 0 -5 4 -10 8
-10 14 0 46 39 39 46 -4 4 -9 -1 -13 -10z"/>
<path d="M5761 5244 c0 -11 3 -14 6 -6 3 7 2 16 -1 19 -3 4 -6 -2 -5 -13z"/>
<path d="M4007 5217 c-23 -20 -35 -91 -17 -102 14 -8 16 -7 24 23 6 16 3 22
-8 22 -10 0 -13 6 -9 18 11 28 30 42 54 40 12 -2 23 2 25 7 7 17 -48 11 -69
-8z"/>
<path d="M7821 5204 c0 -11 3 -14 6 -6 3 7 2 16 -1 19 -3 4 -6 -2 -5 -13z"/>
<path d="M7682 5190 c0 -14 2 -19 5 -12 2 6 2 18 0 25 -3 6 -5 1 -5 -13z"/>
<path d="M5831 5184 c0 -11 3 -14 6 -6 3 7 2 16 -1 19 -3 4 -6 -2 -5 -13z"/>
<path d="M7641 5154 c0 -11 3 -14 6 -6 3 7 2 16 -1 19 -3 4 -6 -2 -5 -13z"/>
<path d="M4431 4961 c-1 -129 13 -220 48 -306 5 -11 16 -47 26 -80 11 -33 20
-62 21 -64 5 -7 64 24 68 36 3 7 -15 51 -41 99 -25 48 -52 110 -61 138 -18 58
-22 223 -6 234 6 4 16 22 22 40 9 26 9 33 -1 29 -6 -2 -13 -13 -15 -25 -2 -12
-8 -20 -13 -17 -5 4 -9 -4 -10 -17 -1 -23 -1 -23 -9 2 -7 22 -8 22 -10 5 -2
-11 -6 -2 -10 20 -5 26 -8 -6 -9 -94z"/>
<path d="M6037 5070 c-3 -11 -1 -20 4 -20 5 0 9 9 9 20 0 11 -2 20 -4 20 -2 0
-6 -9 -9 -20z"/>
<path d="M5252 5039 c-7 -11 -11 -23 -9 -25 7 -7 29 24 25 36 -2 6 -9 1 -16
-11z"/>
<path d="M3760 5010 c0 -5 5 -10 11 -10 5 0 7 5 4 10 -3 6 -8 10 -11 10 -2 0
-4 -4 -4 -10z"/>
<path d="M3759 4968 c-1 -13 -1 -26 0 -30 0 -5 -3 -8 -9 -8 -5 0 -10 8 -11 18
0 12 -3 11 -10 -7 -6 -15 -6 -36 0 -57 5 -19 6 -36 1 -39 -5 -3 -4 -22 2 -42
7 -25 6 -43 -1 -59 -10 -22 -9 -23 14 -12 25 11 35 53 16 60 -8 3 -15 62 -12
113 1 17 3 17 11 5 7 -11 10 -2 10 33 0 47 -9 67 -11 25z"/>
<path d="M3961 4974 c0 -11 3 -14 6 -6 3 7 2 16 -1 19 -3 4 -6 -2 -5 -13z"/>
<path d="M7820 4960 c0 -13 -5 -18 -15 -14 -8 4 -15 1 -15 -5 0 -6 9 -11 20
-11 15 0 20 7 20 25 0 14 -2 25 -5 25 -3 0 -5 -9 -5 -20z"/>
<path d="M6267 4884 c-4 -4 -7 -14 -7 -23 0 -11 3 -12 11 -4 6 6 10 16 7 23
-2 6 -7 8 -11 4z"/>
<path d="M3770 4830 c0 -11 5 -20 10 -20 6 0 10 9 10 20 0 11 -4 20 -10 20 -5
0 -10 -9 -10 -20z"/>
<path d="M3625 4830 c-3 -5 -1 -10 4 -10 6 0 11 5 11 10 0 6 -2 10 -4 10 -3 0
-8 -4 -11 -10z"/>
<path d="M1 4481 c0 -184 1 -332 3 -330 5 5 20 179 20 229 0 19 -2 114 -4 210
-6 307 -18 237 -19 -109z"/>
<path d="M3631 4784 c0 -11 3 -14 6 -6 3 7 2 16 -1 19 -3 4 -6 -2 -5 -13z"/>
<path d="M5969 4737 c-29 -36 -109 -189 -109 -208 0 -6 -6 -25 -14 -42 -7 -18
-19 -57 -26 -87 -16 -73 -32 -121 -47 -145 -7 -11 -13 -26 -12 -35 0 -9 4 -6
9 8 5 12 16 22 25 22 8 0 15 9 15 20 0 11 5 20 10 20 6 0 10 9 10 20 0 10 8
41 18 67 10 26 24 81 31 121 7 40 18 78 25 85 7 6 18 33 25 59 9 33 24 55 52
78 39 31 49 50 27 50 -7 0 -25 -15 -39 -33z"/>
<path d="M3641 4714 c0 -11 3 -14 6 -6 3 7 2 16 -1 19 -3 4 -6 -2 -5 -13z"/>
<path d="M5306 4678 l-17 -33 20 24 c18 20 27 41 18 41 -1 0 -11 -15 -21 -32z"/>
<path d="M3715 4690 c3 -5 8 -10 11 -10 2 0 4 5 4 10 0 6 -5 10 -11 10 -5 0
-7 -4 -4 -10z"/>
<path d="M34 4605 c0 -49 1 -71 3 -48 2 23 2 64 0 90 -2 26 -3 8 -3 -42z"/>
<path d="M3781 4664 c0 -11 3 -14 6 -6 3 7 2 16 -1 19 -3 4 -6 -2 -5 -13z"/>
<path d="M3670 4633 c0 -17 5 -35 10 -38 13 -8 13 35 0 55 -7 11 -10 7 -10
-17z"/>
<path d="M5801 4623 c-1 -21 -15 -43 -49 -79 -7 -8 -10 -18 -7 -24 3 -5 1 -10
-4 -10 -6 0 -11 -7 -11 -16 0 -8 -4 -12 -10 -9 -6 4 -10 -6 -11 -22 0 -15 -3
-22 -6 -15 -4 10 -9 8 -19 -6 -20 -29 -36 -75 -24 -67 6 3 10 1 10 -4 0 -6 -4
-11 -8 -11 -5 0 -14 -23 -21 -50 -8 -31 -17 -47 -24 -43 -7 4 -8 0 -4 -11 10
-26 -92 -213 -107 -198 -4 4 -7 2 -6 -3 4 -20 -1 -31 -29 -64 -32 -37 -67
-150 -56 -178 8 -20 9 -19 56 106 7 18 24 47 38 64 l25 30 12 -29 12 -29 0 33
c-1 18 2 35 5 39 4 3 7 -5 7 -20 0 -14 5 -29 10 -32 6 -4 10 10 10 35 0 35 -3
41 -16 36 -13 -5 -14 -3 -7 6 5 7 16 29 23 48 7 19 36 71 64 115 56 87 66 109
102 230 13 44 31 94 40 110 9 17 14 44 11 60 -3 21 -4 23 -6 8z"/>
<path d="M5230 4566 c-7 -15 -23 -26 -39 -28 -32 -4 -52 -43 -56 -107 -4 -77
-5 -82 -14 -77 -5 3 -14 -6 -20 -22 -7 -15 -18 -38 -26 -52 -8 -14 -15 -33
-15 -42 0 -9 -5 -20 -11 -24 -9 -5 -10 6 -5 40 5 30 4 46 -3 46 -6 0 -11 -5
-11 -11 0 -6 -8 -23 -19 -37 -13 -19 -20 -52 -24 -110 -6 -92 -19 -116 -68
-127 -55 -12 -32 -28 31 -22 66 6 106 26 119 60 5 12 24 60 44 107 19 47 37
99 41 115 9 41 56 195 66 220 28 63 38 95 31 95 -4 0 -14 -11 -21 -24z m-63
-118 c-3 -8 -6 -5 -6 6 -1 11 2 17 5 13 3 -3 4 -12 1 -19z"/>
<path d="M4340 4523 c0 -10 6 -30 14 -44 57 -110 95 -171 131 -211 24 -26 52
-66 64 -89 18 -33 55 -83 130 -174 4 -5 27 -28 51 -49 l43 -40 -7 30 c-4 16
-31 54 -59 85 -49 53 -177 220 -243 318 -66 99 -104 161 -104 170 0 6 -4 13
-10 16 -5 3 -10 -2 -10 -12z"/>
<path d="M32 4490 c0 -14 2 -19 5 -12 2 6 2 18 0 25 -3 6 -5 1 -5 -13z"/>
<path d="M3471 4444 c0 -11 3 -14 6 -6 3 7 2 16 -1 19 -3 4 -6 -2 -5 -13z"/>
<path d="M3976 4444 c-10 -25 -7 -34 9 -28 8 4 15 15 15 25 0 23 -16 25 -24 3z"/>
<path d="M5614 4335 c-3 -20 -15 -40 -25 -46 -11 -5 -19 -14 -19 -20 0 -5 11
1 25 13 26 24 51 88 35 88 -5 0 -12 -16 -16 -35z"/>
<path d="M5496 4164 c-4 -9 -4 -19 -1 -22 2 -3 7 3 11 12 4 9 4 19 1 22 -2 3
-7 -3 -11 -12z"/>
<path d="M3 4020 c0 -30 2 -43 4 -27 2 15 2 39 0 55 -2 15 -4 2 -4 -28z"/>
<path d="M4633 3945 c-26 -50 -30 -74 -10 -53 34 35 55 71 50 84 -8 23 -17 16
-40 -31z"/>
<path d="M5603 3955 c0 -22 2 -30 4 -17 2 12 2 30 0 40 -3 9 -5 -1 -4 -23z"/>
<path d="M5623 3920 c0 -25 2 -35 4 -22 2 12 2 32 0 45 -2 12 -4 2 -4 -23z"/>
<path d="M5512 3817 c-8 -32 -11 -61 -8 -64 3 -4 6 1 6 10 0 8 5 17 11 19 6 2
9 22 7 48 l-3 45 -13 -58z"/>
<path d="M3 3750 c0 -41 2 -58 4 -37 2 20 2 54 0 75 -2 20 -4 3 -4 -38z"/>
<path d="M6922 3618 c-40 -52 -42 -71 -2 -33 16 16 28 31 25 33 -2 3 0 13 6
23 16 30 6 22 -29 -23z"/>
<path d="M6742 3487 c-18 -50 -14 -56 8 -12 23 45 23 45 12 45 -4 0 -13 -15
-20 -33z"/>
<path d="M6692 3398 c-23 -44 -28 -68 -14 -68 8 0 28 43 38 83 9 38 3 34 -24
-15z"/>
<path d="M6635 3290 c-4 -22 -11 -38 -16 -34 -5 3 -9 0 -9 -5 0 -13 10 -14 28
-3 16 11 29 82 14 82 -6 0 -13 -18 -17 -40z"/>
<path d="M5512 3266 c-12 -18 -31 -42 -41 -53 -11 -12 -30 -41 -41 -66 -17
-36 -19 -50 -11 -66 14 -25 14 -34 1 -26 -12 8 -13 -35 -1 -54 7 -11 10 -11
17 0 16 25 34 83 34 111 0 26 44 140 63 166 5 7 8 14 6 17 -3 2 -14 -11 -27
-29z"/>
<path d="M6580 3209 c-6 -11 -9 -25 -7 -32 2 -7 11 3 21 21 9 17 12 32 7 32
-6 0 -15 -9 -21 -21z"/>
<path d="M5697 3196 c-4 -15 -6 -31 -2 -34 10 -10 16 6 13 35 l-3 28 -8 -29z"/>
<path d="M4942 3110 c0 -19 2 -27 5 -17 2 9 2 25 0 35 -3 9 -5 1 -5 -18z"/>
<path d="M6336 3103 c-3 -3 -6 -15 -6 -25 0 -11 -4 -16 -10 -13 -5 3 -10 1
-10 -4 0 -6 8 -11 19 -11 12 0 20 9 23 25 5 25 -3 40 -16 28z"/>
<path d="M4792 3080 c0 -14 2 -19 5 -12 2 6 2 18 0 25 -3 6 -5 1 -5 -13z"/>
<path d="M6475 3052 c-36 -42 -37 -44 -9 -22 31 25 58 59 52 65 -2 2 -21 -18
-43 -43z"/>
<path d="M6656 3089 c4 -7 -26 -23 -38 -21 -5 1 -8 -2 -8 -8 0 -5 5 -10 10
-10 6 0 2 -10 -10 -22 -11 -12 -18 -23 -16 -26 8 -7 56 30 56 44 0 8 9 19 20
26 25 16 25 24 1 24 -11 0 -18 -3 -15 -7z"/>
<path d="M4822 3060 c0 -19 2 -27 5 -17 2 9 2 25 0 35 -3 9 -5 1 -5 -18z"/>
<path d="M5630 3081 c0 -6 5 -13 10 -16 6 -3 10 1 10 9 0 9 -4 16 -10 16 -5 0
-10 -4 -10 -9z"/>
<path d="M5310 3043 c-3 -23 -2 -39 3 -34 5 5 7 24 5 42 -3 33 -4 33 -8 -8z"/>
<path d="M6500 3030 c-19 -21 -54 -60 -78 -85 -24 -26 -41 -50 -37 -53 3 -3
27 18 53 48 26 30 62 70 80 88 17 19 32 36 32 38 0 13 -19 -1 -50 -36z"/>
<path d="M4980 3020 c0 -11 -4 -20 -9 -20 -5 0 -11 -18 -13 -39 -2 -22 -1 -38
1 -35 2 2 10 -1 18 -7 11 -9 13 1 13 55 0 36 -2 66 -5 66 -3 0 -5 -9 -5 -20z"/>
<path d="M6287 3033 c-4 -3 -7 -18 -6 -32 l0 -26 10 25 c6 13 15 28 22 32 8 5
7 8 -4 8 -9 0 -19 -3 -22 -7z"/>
<path d="M6740 3030 c-8 -5 -12 -12 -9 -15 4 -3 12 1 19 10 14 17 11 19 -10 5z"/>
<path d="M4931 2974 c0 -11 3 -14 6 -6 3 7 2 16 -1 19 -3 4 -6 -2 -5 -13z"/>
<path d="M5727 2950 c-3 -11 -1 -20 4 -20 5 0 9 9 9 20 0 11 -2 20 -4 20 -2 0
-6 -9 -9 -20z"/>
<path d="M6271 2958 c0 -10 -5 -18 -9 -18 -5 0 -14 -12 -21 -26 -8 -18 -8 -25
0 -22 6 2 9 7 7 10 -2 4 5 13 16 21 11 8 16 21 13 33 -4 16 -5 16 -6 2z"/>
<path d="M5787 2954 c-4 -4 -7 -14 -7 -23 0 -11 3 -12 11 -4 6 6 10 16 7 23
-2 6 -7 8 -11 4z"/>
<path d="M15 2941 c-12 -21 -16 -63 -5 -56 6 4 9 13 6 20 -2 7 1 18 7 24 6 6
8 13 5 16 -3 4 -9 1 -13 -4z"/>
<path d="M6201 2814 c0 -11 3 -14 6 -6 3 7 2 16 -1 19 -3 4 -6 -2 -5 -13z"/>
<path d="M6274 2754 c-1 -13 2 -21 7 -18 11 6 12 31 2 37 -5 3 -9 -6 -9 -19z"/>
<path d="M6054 2736 c-3 -21 -4 -39 -1 -42 3 -4 9 10 13 30 3 21 4 39 1 42 -3
4 -9 -10 -13 -30z"/>
<path d="M6141 2694 c0 -11 3 -14 6 -6 3 7 2 16 -1 19 -3 4 -6 -2 -5 -13z"/>
<path d="M6122 2670 c0 -14 2 -19 5 -12 2 6 2 18 0 25 -3 6 -5 1 -5 -13z"/>
<path d="M6470 2621 c0 -22 5 -43 10 -46 6 -4 9 -22 7 -40 -2 -19 2 -56 9 -82
7 -26 13 -41 13 -33 1 8 13 23 29 33 34 24 43 77 12 77 -11 0 -20 7 -20 16 0
8 -4 12 -10 9 -6 -3 -10 5 -10 19 0 17 -4 24 -13 20 -10 -3 -12 5 -9 31 3 21
0 35 -7 35 -6 0 -11 -17 -11 -39z"/>
<path d="M6625 2560 c-10 -11 -15 -23 -12 -27 4 -3 7 -1 7 5 0 7 7 12 15 12 8
0 15 7 15 15 0 20 -3 19 -25 -5z"/>
<path d="M3395 2541 c-3 -10 -3 -25 0 -33 4 -9 -1 -18 -9 -21 -9 -4 -16 -14
-16 -24 0 -14 2 -15 9 -4 5 7 14 10 20 7 7 -5 11 9 11 43 0 53 -5 64 -15 32z"/>
<path d="M6296 2544 c-9 -23 -7 -36 3 -30 12 8 21 46 11 46 -4 0 -11 -7 -14
-16z"/>
<path d="M6356 2535 c-9 -26 -7 -32 5 -12 6 10 9 21 6 23 -2 3 -7 -2 -11 -11z"/>
<path d="M6585 2520 c3 -5 8 -10 11 -10 2 0 4 5 4 10 0 6 -5 10 -11 10 -5 0
-7 -4 -4 -10z"/>
<path d="M6381 2504 c0 -11 3 -14 6 -6 3 7 2 16 -1 19 -3 4 -6 -2 -5 -13z"/>
<path d="M6281 2484 c0 -11 3 -14 6 -6 3 7 2 16 -1 19 -3 4 -6 -2 -5 -13z"/>
<path d="M6257 2453 c-10 -9 -9 -23 2 -23 5 0 11 7 15 15 5 15 -5 20 -17 8z"/>
<path d="M3342 2410 c0 -14 2 -19 5 -12 2 6 2 18 0 25 -3 6 -5 1 -5 -13z"/>
<path d="M6401 2419 c0 -9 6 -22 14 -29 10 -9 15 -9 15 -1 0 6 -4 11 -9 11 -5
0 -12 8 -14 18 -4 14 -5 14 -6 1z"/>
<path d="M3400 2405 c0 -20 -57 -95 -72 -95 -5 0 -34 -26 -64 -57 -30 -32 -68
-72 -84 -89 -17 -17 -30 -35 -30 -39 0 -4 -8 -15 -18 -24 -10 -9 -24 -31 -30
-48 -9 -28 -9 -33 4 -33 8 0 12 5 9 10 -4 6 1 23 11 38 18 28 200 212 210 212
12 0 -45 -68 -139 -167 -53 -56 -40 -79 16 -26 l40 38 -24 -35 c-13 -19 -29
-41 -36 -48 -7 -7 -13 -16 -13 -18 0 -26 208 184 234 237 19 38 20 42 5 33 -8
-5 -10 10 -6 55 2 34 1 64 -4 67 -5 3 -9 -2 -9 -11z"/>
<path d="M6241 2404 c0 -11 3 -14 6 -6 3 7 2 16 -1 19 -3 4 -6 -2 -5 -13z"/>
<path d="M3470 2329 c0 -5 5 -7 10 -4 6 3 10 8 10 11 0 2 -4 4 -10 4 -5 0 -10
-5 -10 -11z"/>
<path d="M6170 2259 c0 -5 5 -7 10 -4 6 3 10 8 10 11 0 2 -4 4 -10 4 -5 0 -10
-5 -10 -11z"/>
<path d="M4873 2125 c0 -22 2 -30 4 -17 2 12 2 30 0 40 -3 9 -5 -1 -4 -23z"/>
<path d="M4822 2070 c0 -14 2 -19 5 -12 2 6 2 18 0 25 -3 6 -5 1 -5 -13z"/>
<path d="M4841 2064 c0 -11 3 -14 6 -6 3 7 2 16 -1 19 -3 4 -6 -2 -5 -13z"/>
<path d="M4871 2065 c-1 -13 19 -35 31 -35 4 0 8 5 8 10 0 6 -6 10 -14 10 -8
0 -17 6 -19 13 -3 6 -6 7 -6 2z"/>
<path d="M4850 2019 c0 -15 18 -19 23 -6 3 8 -1 14 -9 14 -8 0 -14 -4 -14 -8z"/>
<path d="M2810 1968 c35 -31 66 -48 87 -47 14 0 15 2 3 6 -8 4 -28 16 -45 28
-16 12 -39 25 -50 29 -17 6 -16 3 5 -16z"/>
<path d="M5019 1943 c0 -25 -1 -26 -9 -8 -7 16 -9 14 -7 -13 1 -30 3 -31 14
-16 7 10 13 28 13 41 0 33 -10 29 -11 -4z"/>
<path d="M2811 1924 c0 -11 3 -14 6 -6 3 7 2 16 -1 19 -3 4 -6 -2 -5 -13z"/>
<path d="M4070 1760 c0 -5 5 -10 10 -10 6 0 10 5 10 10 0 6 -4 10 -10 10 -5 0
-10 -4 -10 -10z"/>
<path d="M3198 1739 c-3 -8 3 -25 13 -38 l19 -23 0 38 c0 26 -3 34 -9 25 -7
-11 -9 -11 -13 0 -3 10 -6 10 -10 -2z"/>
<path d="M3241 1704 c0 -11 3 -14 6 -6 3 7 2 16 -1 19 -3 4 -6 -2 -5 -13z"/>
<path d="M3281 1664 c0 -11 3 -14 6 -6 3 7 2 16 -1 19 -3 4 -6 -2 -5 -13z"/>
<path d="M3341 1614 c0 -11 3 -14 6 -6 3 7 2 16 -1 19 -3 4 -6 -2 -5 -13z"/>
<path d="M3340 1583 c0 -6 -7 -13 -15 -15 -12 -2 -9 -11 16 -41 38 -46 67 -63
82 -48 8 8 8 11 -1 11 -18 0 -62 42 -62 59 0 19 -20 52 -20 34z"/>
<path d="M3441 1494 c0 -11 3 -14 6 -6 3 7 2 16 -1 19 -3 4 -6 -2 -5 -13z"/>
<path d="M3452 1380 c0 -14 2 -19 5 -12 2 6 2 18 0 25 -3 6 -5 1 -5 -13z"/>
<path d="M3746 1163 c54 -49 75 -64 85 -61 6 2 -18 23 -53 46 -40 28 -52 33
-32 15z"/>
<path d="M2 1110 c0 -14 2 -19 5 -12 2 6 2 18 0 25 -3 6 -5 1 -5 -13z"/>
<path d="M3850 1102 c0 -5 21 -18 48 -31 39 -19 44 -20 27 -4 -24 22 -75 46
-75 35z"/>
<path d="M4147 1103 c-3 -4 -8 -27 -12 -51 -4 -26 -11 -40 -18 -35 -6 4 -8 0
-4 -10 3 -10 2 -17 -3 -17 -6 0 -10 12 -11 28 0 24 -1 25 -9 7 -5 -12 -9 -14
-9 -6 -1 8 -4 11 -8 8 -4 -4 9 -23 27 -42 18 -19 31 -38 27 -41 -7 -8 -147
104 -147 117 0 5 -7 9 -15 9 -23 0 -18 -15 15 -40 17 -13 51 -42 75 -64 59
-56 72 -66 84 -66 6 0 7 8 4 18 -6 16 -6 16 10 0 9 -9 17 -21 17 -27 0 -6 5
-11 10 -11 6 0 10 -12 10 -27 0 -22 2 -25 10 -13 10 15 11 103 2 128 -4 11 -6
11 -13 0 -6 -8 -9 3 -10 32 -1 29 -3 38 -7 25 -4 -11 -15 -21 -24 -23 -16 -2
-16 1 -2 49 14 45 14 74 1 52z"/>
<path d="M4229 929 c-7 -20 -4 -73 5 -87 12 -19 26 -4 25 26 -2 24 -2 24 -6 5
-7 -36 -19 -26 -15 11 5 40 -1 69 -9 45z"/>
<path d="M9571 14 c0 -11 3 -14 6 -6 3 7 2 16 -1 19 -3 4 -6 -2 -5 -13z"/>
</g>
</svg>
